<svg width="1508" height="1230" viewBox="0 0 1508 1230" fill="none" xmlns="http://www.w3.org/2000/svg">
<g filter="url(#filter0_f_1_2)">
<rect width="1468" height="1190" transform="translate(20 20)" fill="#FAFAFA"/>
<path d="M129 33L151.451 102.098H224.106L165.327 144.803L187.779 213.902L129 171.197L70.2215 213.902L92.6729 144.803L33.8943 102.098H106.549L129 33Z" fill="url(#paint0_diamond_1_2)" fill-opacity="0.6"/>
<path d="M379 124L401.451 193.098H474.106L415.327 235.803L437.779 304.902L379 262.197L320.221 304.902L342.673 235.803L283.894 193.098H356.549L379 124Z" fill="url(#paint1_diamond_1_2)" fill-opacity="0.6"/>
<path d="M129 324L151.451 393.098H224.106L165.327 435.803L187.779 504.902L129 462.197L70.2215 504.902L92.6729 435.803L33.8943 393.098H106.549L129 324Z" fill="url(#paint2_diamond_1_2)" fill-opacity="0.6"/>
<path d="M379 415L401.451 484.098H474.106L415.327 526.803L437.779 595.902L379 553.197L320.221 595.902L342.673 526.803L283.894 484.098H356.549L379 415Z" fill="url(#paint3_diamond_1_2)" fill-opacity="0.6"/>
<path d="M629 324L651.451 393.098H724.106L665.327 435.803L687.779 504.902L629 462.197L570.221 504.902L592.673 435.803L533.894 393.098H606.549L629 324Z" fill="url(#paint4_diamond_1_2)" fill-opacity="0.6"/>
<path d="M879 415L901.451 484.098H974.106L915.327 526.803L937.779 595.902L879 553.197L820.221 595.902L842.673 526.803L783.894 484.098H856.549L879 415Z" fill="url(#paint5_diamond_1_2)" fill-opacity="0.6"/>
<path d="M1129 324L1151.45 393.098H1224.11L1165.33 435.803L1187.78 504.902L1129 462.197L1070.22 504.902L1092.67 435.803L1033.89 393.098H1106.55L1129 324Z" fill="url(#paint6_diamond_1_2)" fill-opacity="0.6"/>
<path d="M1379 415L1401.45 484.098H1474.11L1415.33 526.803L1437.78 595.902L1379 553.197L1320.22 595.902L1342.67 526.803L1283.89 484.098H1356.55L1379 415Z" fill="url(#paint7_diamond_1_2)" fill-opacity="0.6"/>
<path d="M879 124L901.451 193.098H974.106L915.327 235.803L937.779 304.902L879 262.197L820.221 304.902L842.673 235.803L783.894 193.098H856.549L879 124Z" fill="url(#paint8_diamond_1_2)" fill-opacity="0.6"/>
<path d="M629 33L651.451 102.098H724.106L665.327 144.803L687.779 213.902L629 171.197L570.221 213.902L592.673 144.803L533.894 102.098H606.549L629 33Z" fill="url(#paint9_diamond_1_2)" fill-opacity="0.6"/>
<path d="M1379 124L1401.45 193.098H1474.11L1415.33 235.803L1437.78 304.902L1379 262.197L1320.22 304.902L1342.67 235.803L1283.89 193.098H1356.55L1379 124Z" fill="url(#paint10_diamond_1_2)" fill-opacity="0.6"/>
<path d="M1129 33L1151.45 102.098H1224.11L1165.33 144.803L1187.78 213.902L1129 171.197L1070.22 213.902L1092.67 144.803L1033.89 102.098H1106.55L1129 33Z" fill="url(#paint11_diamond_1_2)" fill-opacity="0.6"/>
<path d="M129 615L151.451 684.098H224.106L165.327 726.803L187.779 795.902L129 753.197L70.2215 795.902L92.6729 726.803L33.8943 684.098H106.549L129 615Z" fill="url(#paint12_diamond_1_2)" fill-opacity="0.6"/>
<path d="M379 706L401.451 775.098H474.106L415.327 817.803L437.779 886.902L379 844.197L320.221 886.902L342.673 817.803L283.894 775.098H356.549L379 706Z" fill="url(#paint13_diamond_1_2)" fill-opacity="0.6"/>
<path d="M629 615L651.451 684.098H724.106L665.327 726.803L687.779 795.902L629 753.197L570.221 795.902L592.673 726.803L533.894 684.098H606.549L629 615Z" fill="url(#paint14_diamond_1_2)" fill-opacity="0.6"/>
<path d="M879 706L901.451 775.098H974.106L915.327 817.803L937.779 886.902L879 844.197L820.221 886.902L842.673 817.803L783.894 775.098H856.549L879 706Z" fill="url(#paint15_diamond_1_2)" fill-opacity="0.6"/>
<path d="M1129 615L1151.45 684.098H1224.11L1165.33 726.803L1187.78 795.902L1129 753.197L1070.22 795.902L1092.67 726.803L1033.89 684.098H1106.55L1129 615Z" fill="url(#paint16_diamond_1_2)" fill-opacity="0.6"/>
<path d="M1379 706L1401.45 775.098H1474.11L1415.33 817.803L1437.78 886.902L1379 844.197L1320.22 886.902L1342.67 817.803L1283.89 775.098H1356.55L1379 706Z" fill="url(#paint17_diamond_1_2)" fill-opacity="0.6"/>
<path d="M129 906L151.451 975.098H224.106L165.327 1017.8L187.779 1086.9L129 1044.2L70.2215 1086.9L92.6729 1017.8L33.8943 975.098H106.549L129 906Z" fill="url(#paint18_diamond_1_2)" fill-opacity="0.6"/>
<path d="M629 906L651.451 975.098H724.106L665.327 1017.8L687.779 1086.9L629 1044.2L570.221 1086.9L592.673 1017.8L533.894 975.098H606.549L629 906Z" fill="url(#paint19_diamond_1_2)" fill-opacity="0.6"/>
<path d="M1129 906L1151.45 975.098H1224.11L1165.33 1017.8L1187.78 1086.9L1129 1044.2L1070.22 1086.9L1092.67 1017.8L1033.89 975.098H1106.55L1129 906Z" fill="url(#paint20_diamond_1_2)" fill-opacity="0.6"/>
<path d="M379 997L401.451 1066.1H474.106L415.327 1108.8L437.779 1177.9L379 1135.2L320.221 1177.9L342.673 1108.8L283.894 1066.1H356.549L379 997Z" fill="url(#paint21_diamond_1_2)" fill-opacity="0.6"/>
<path d="M879 997L901.451 1066.1H974.106L915.327 1108.8L937.779 1177.9L879 1135.2L820.221 1177.9L842.673 1108.8L783.894 1066.1H856.549L879 997Z" fill="url(#paint22_diamond_1_2)" fill-opacity="0.6"/>
<path d="M1374 997L1396.45 1066.1H1469.11L1410.33 1108.8L1432.78 1177.9L1374 1135.2L1315.22 1177.9L1337.67 1108.8L1278.89 1066.1H1351.55L1374 997Z" fill="url(#paint23_diamond_1_2)" fill-opacity="0.6"/>
</g>
<defs>
<filter id="filter0_f_1_2" x="0" y="0" width="1508" height="1230" filterUnits="userSpaceOnUse" color-interpolation-filters="sRGB">
<feFlood flood-opacity="0" result="BackgroundImageFix"/>
<feBlend mode="normal" in="SourceGraphic" in2="BackgroundImageFix" result="shape"/>
<feGaussianBlur stdDeviation="10" result="effect1_foregroundBlur_1_2"/>
</filter>
<radialGradient id="paint0_diamond_1_2" cx="0" cy="0" r="1" gradientUnits="userSpaceOnUse" gradientTransform="translate(129 133) rotate(90) scale(100)">
<stop stop-color="#172554"/>
<stop offset="1" stop-color="#4973FF"/>
</radialGradient>
<radialGradient id="paint1_diamond_1_2" cx="0" cy="0" r="1" gradientUnits="userSpaceOnUse" gradientTransform="translate(379 224) rotate(90) scale(100)">
<stop stop-color="#172554"/>
<stop offset="1" stop-color="#4973FF"/>
</radialGradient>
<radialGradient id="paint2_diamond_1_2" cx="0" cy="0" r="1" gradientUnits="userSpaceOnUse" gradientTransform="translate(129 424) rotate(90) scale(100)">
<stop stop-color="#172554"/>
<stop offset="1" stop-color="#4973FF"/>
</radialGradient>
<radialGradient id="paint3_diamond_1_2" cx="0" cy="0" r="1" gradientUnits="userSpaceOnUse" gradientTransform="translate(379 515) rotate(90) scale(100)">
<stop stop-color="#172554"/>
<stop offset="1" stop-color="#4973FF"/>
</radialGradient>
<radialGradient id="paint4_diamond_1_2" cx="0" cy="0" r="1" gradientUnits="userSpaceOnUse" gradientTransform="translate(629 424) rotate(90) scale(100)">
<stop stop-color="#172554"/>
<stop offset="1" stop-color="#4973FF"/>
</radialGradient>
<radialGradient id="paint5_diamond_1_2" cx="0" cy="0" r="1" gradientUnits="userSpaceOnUse" gradientTransform="translate(879 515) rotate(90) scale(100)">
<stop stop-color="#172554"/>
<stop offset="1" stop-color="#4973FF"/>
</radialGradient>
<radialGradient id="paint6_diamond_1_2" cx="0" cy="0" r="1" gradientUnits="userSpaceOnUse" gradientTransform="translate(1129 424) rotate(90) scale(100)">
<stop stop-color="#172554"/>
<stop offset="1" stop-color="#4973FF"/>
</radialGradient>
<radialGradient id="paint7_diamond_1_2" cx="0" cy="0" r="1" gradientUnits="userSpaceOnUse" gradientTransform="translate(1379 515) rotate(90) scale(100)">
<stop stop-color="#172554"/>
<stop offset="1" stop-color="#4973FF"/>
</radialGradient>
<radialGradient id="paint8_diamond_1_2" cx="0" cy="0" r="1" gradientUnits="userSpaceOnUse" gradientTransform="translate(879 224) rotate(90) scale(100)">
<stop stop-color="#172554"/>
<stop offset="1" stop-color="#4973FF"/>
</radialGradient>
<radialGradient id="paint9_diamond_1_2" cx="0" cy="0" r="1" gradientUnits="userSpaceOnUse" gradientTransform="translate(629 133) rotate(90) scale(100)">
<stop stop-color="#172554"/>
<stop offset="1" stop-color="#4973FF"/>
</radialGradient>
<radialGradient id="paint10_diamond_1_2" cx="0" cy="0" r="1" gradientUnits="userSpaceOnUse" gradientTransform="translate(1379 224) rotate(90) scale(100)">
<stop stop-color="#172554"/>
<stop offset="1" stop-color="#4973FF"/>
</radialGradient>
<radialGradient id="paint11_diamond_1_2" cx="0" cy="0" r="1" gradientUnits="userSpaceOnUse" gradientTransform="translate(1129 133) rotate(90) scale(100)">
<stop stop-color="#172554"/>
<stop offset="1" stop-color="#4973FF"/>
</radialGradient>
<radialGradient id="paint12_diamond_1_2" cx="0" cy="0" r="1" gradientUnits="userSpaceOnUse" gradientTransform="translate(129 715) rotate(90) scale(100)">
<stop stop-color="#172554"/>
<stop offset="1" stop-color="#4973FF"/>
</radialGradient>
<radialGradient id="paint13_diamond_1_2" cx="0" cy="0" r="1" gradientUnits="userSpaceOnUse" gradientTransform="translate(379 806) rotate(90) scale(100)">
<stop stop-color="#172554"/>
<stop offset="1" stop-color="#4973FF"/>
</radialGradient>
<radialGradient id="paint14_diamond_1_2" cx="0" cy="0" r="1" gradientUnits="userSpaceOnUse" gradientTransform="translate(629 715) rotate(90) scale(100)">
<stop stop-color="#172554"/>
<stop offset="1" stop-color="#4973FF"/>
</radialGradient>
<radialGradient id="paint15_diamond_1_2" cx="0" cy="0" r="1" gradientUnits="userSpaceOnUse" gradientTransform="translate(879 806) rotate(90) scale(100)">
<stop stop-color="#172554"/>
<stop offset="1" stop-color="#4973FF"/>
</radialGradient>
<radialGradient id="paint16_diamond_1_2" cx="0" cy="0" r="1" gradientUnits="userSpaceOnUse" gradientTransform="translate(1129 715) rotate(90) scale(100)">
<stop stop-color="#172554"/>
<stop offset="1" stop-color="#4973FF"/>
</radialGradient>
<radialGradient id="paint17_diamond_1_2" cx="0" cy="0" r="1" gradientUnits="userSpaceOnUse" gradientTransform="translate(1379 806) rotate(90) scale(100)">
<stop stop-color="#172554"/>
<stop offset="1" stop-color="#4973FF"/>
</radialGradient>
<radialGradient id="paint18_diamond_1_2" cx="0" cy="0" r="1" gradientUnits="userSpaceOnUse" gradientTransform="translate(129 1006) rotate(90) scale(100)">
<stop stop-color="#172554"/>
<stop offset="1" stop-color="#4973FF"/>
</radialGradient>
<radialGradient id="paint19_diamond_1_2" cx="0" cy="0" r="1" gradientUnits="userSpaceOnUse" gradientTransform="translate(629 1006) rotate(90) scale(100)">
<stop stop-color="#172554"/>
<stop offset="1" stop-color="#4973FF"/>
</radialGradient>
<radialGradient id="paint20_diamond_1_2" cx="0" cy="0" r="1" gradientUnits="userSpaceOnUse" gradientTransform="translate(1129 1006) rotate(90) scale(100)">
<stop stop-color="#172554"/>
<stop offset="1" stop-color="#4973FF"/>
</radialGradient>
<radialGradient id="paint21_diamond_1_2" cx="0" cy="0" r="1" gradientUnits="userSpaceOnUse" gradientTransform="translate(379 1097) rotate(90) scale(100)">
<stop stop-color="#172554"/>
<stop offset="1" stop-color="#4973FF"/>
</radialGradient>
<radialGradient id="paint22_diamond_1_2" cx="0" cy="0" r="1" gradientUnits="userSpaceOnUse" gradientTransform="translate(879 1097) rotate(90) scale(100)">
<stop stop-color="#172554"/>
<stop offset="1" stop-color="#4973FF"/>
</radialGradient>
<radialGradient id="paint23_diamond_1_2" cx="0" cy="0" r="1" gradientUnits="userSpaceOnUse" gradientTransform="translate(1374 1097) rotate(90) scale(100)">
<stop stop-color="#172554"/>
<stop offset="1" stop-color="#4973FF"/>
</radialGradient>
</defs>
</svg>
