<svg width="226" height="81" viewBox="0 0 226 81" fill="none" xmlns="http://www.w3.org/2000/svg">
<g filter="url(#filter0_di_7_8)">
<path d="M9.256 60.08C7.768 60.08 6.52 59.696 5.512 58.928C4.552 58.112 4.072 56.936 4.072 55.4C4.072 54.44 4.168 53.408 4.36 52.304C4.552 51.152 4.768 49.928 5.008 48.632L9.976 25.88H4L4.216 25.016L6.808 24.728C8.152 24.584 9.328 24.248 10.336 23.72C11.344 23.192 12.304 22.448 13.216 21.488L20.128 14.504H21.208L19.192 24.368H27.04L26.68 25.88H18.832L13.864 49.856C13.672 50.768 13.528 51.56 13.432 52.232C13.336 52.856 13.288 53.384 13.288 53.816C13.288 54.296 13.432 54.68 13.72 54.968C14.008 55.256 14.32 55.4 14.656 55.4C15.328 55.4 16.048 55.136 16.816 54.608C17.584 54.032 18.544 53.192 19.696 52.088L20.56 52.808C19.36 54.584 17.8 56.24 15.88 57.776C13.96 59.312 11.752 60.08 9.256 60.08Z" fill="url(#paint0_radial_7_8)"/>
<path d="M25.4515 59.432L25.0195 59L31.5715 27.608C31.9555 25.784 32.2915 24.152 32.5795 22.712C32.8675 21.224 33.1795 19.568 33.5155 17.744C33.8995 15.68 33.1075 14.312 31.1395 13.64L29.9875 13.28L30.1315 12.56L43.8835 8.52798L44.3875 9.03198L39.4915 32C41.8915 29.504 44.4355 27.44 47.1235 25.808C49.8595 24.128 52.3795 23.288 54.6835 23.288C56.2195 23.288 57.4675 23.768 58.4275 24.728C59.4355 25.64 59.9395 27.08 59.9395 29.048C59.9395 30.056 59.8435 31.112 59.6515 32.216C59.4595 33.272 59.2195 34.376 58.9315 35.528L55.3315 50.216C55.1395 51.128 54.9475 51.92 54.7555 52.592C54.5635 53.216 54.4675 53.72 54.4675 54.104C54.4675 55.112 54.8995 55.616 55.7635 55.616C57.0115 55.616 58.7635 54.56 61.0195 52.448L61.6675 53.096C60.5155 54.872 58.9555 56.48 56.9875 57.92C55.0195 59.36 52.7875 60.08 50.2915 60.08C48.7075 60.08 47.4835 59.72 46.6195 59C45.7555 58.232 45.3235 57.176 45.3235 55.832C45.3235 54.824 45.4435 53.792 45.6835 52.736C45.9235 51.632 46.2115 50.504 46.5475 49.352L49.7875 36.68C50.1235 35.384 50.4115 34.208 50.6515 33.152C50.9395 32.048 51.0835 31.112 51.0835 30.344C51.0835 28.664 50.2915 27.824 48.7075 27.824C46.3555 27.824 43.2595 29.744 39.4195 33.584L37.2595 43.592C36.6355 46.52 36.0835 49.184 35.6035 51.584C35.1715 53.936 34.7395 56.408 34.3075 59L25.4515 59.432Z" fill="url(#paint1_radial_7_8)"/>
<path d="M65.6219 59.504L64.9019 59L70.3739 32.648C70.6139 31.4 70.5419 30.488 70.1579 29.912C69.7739 29.288 69.1259 28.784 68.2139 28.4L67.1339 27.896L67.2779 27.176L79.8059 23.216L80.5259 23.864L78.5819 35.744C79.5899 33.44 80.7659 31.352 82.1099 29.48C83.4539 27.608 84.8699 26.12 86.3579 25.016C87.8459 23.864 89.3339 23.288 90.8219 23.288C92.3099 23.288 93.5099 23.696 94.4219 24.512C95.3339 25.28 95.7899 26.312 95.7899 27.608C95.7899 28.952 95.3819 30.056 94.5659 30.92C93.7979 31.784 92.7419 32.216 91.3979 32.216C90.3419 32.216 89.3339 31.952 88.3739 31.424C87.4139 30.848 86.4779 30.032 85.5659 28.976C83.8859 30.224 82.4459 31.856 81.2459 33.872C80.0459 35.84 78.9419 38 77.9339 40.352L77.2139 43.664C76.6859 46.208 76.1819 48.752 75.7019 51.296C75.2219 53.84 74.7419 56.408 74.2619 59L65.6219 59.504Z" fill="url(#paint2_radial_7_8)"/>
<path d="M101.894 60.08C100.406 60.08 99.1821 59.696 98.2221 58.928C97.2621 58.16 96.7821 57.032 96.7821 55.544C96.7821 54.68 96.8781 53.648 97.0701 52.448C97.2621 51.248 97.4781 50.048 97.7181 48.848L101.102 32.648C101.534 30.68 100.838 29.288 99.0141 28.472L97.8621 27.896L97.9341 27.104L111.47 23.216L112.19 23.864L106.574 49.928C106.382 50.792 106.238 51.536 106.142 52.16C106.046 52.736 105.998 53.312 105.998 53.888C105.998 54.944 106.478 55.472 107.438 55.472C108.158 55.472 108.878 55.256 109.598 54.824C110.318 54.344 111.23 53.576 112.334 52.52L112.982 53.168C111.782 54.944 110.246 56.552 108.374 57.992C106.55 59.384 104.39 60.08 101.894 60.08Z" fill="url(#paint3_radial_7_8)"/>
<path d="M110.257 76.28C108.241 76.28 106.417 75.824 104.785 74.912C103.153 74 102.337 72.704 102.337 71.024C102.337 69.776 102.745 68.816 103.561 68.144C104.377 67.472 105.337 67.136 106.441 67.136C107.545 67.136 108.577 67.424 109.537 68C110.449 68.576 111.265 69.584 111.985 71.024L112.705 72.824C112.993 73.352 113.329 73.64 113.713 73.688C114.097 73.784 114.457 73.544 114.793 72.968C115.033 72.536 115.249 72.032 115.441 71.456C115.633 70.928 115.873 70.256 116.161 69.44C116.833 67.808 117.409 65.816 117.889 63.464C118.417 61.16 118.897 58.592 119.329 55.76C120.097 51.056 120.841 46.232 121.561 41.288C122.281 36.344 123.025 31.136 123.793 25.664H117.961L118.105 25.016L120.913 24.728C122.065 24.584 122.929 24.2 123.505 23.576C124.081 22.952 124.537 22.04 124.873 20.84C126.169 16.664 128.257 13.448 131.137 11.192C134.017 8.93598 137.569 7.80798 141.793 7.80798C144.193 7.80798 146.137 8.33598 147.625 9.39198C149.113 10.4 149.857 11.696 149.857 13.28C149.857 14.576 149.449 15.608 148.633 16.376C147.817 17.144 146.833 17.528 145.681 17.528C143.425 17.528 141.553 16.016 140.065 12.992L139.777 11.84C139.345 10.832 138.841 10.352 138.265 10.4C137.737 10.4 137.281 10.76 136.897 11.48C136.081 12.632 135.337 14.24 134.665 16.304C133.993 18.368 133.393 21.056 132.865 24.368H141.649L141.289 25.88L132.649 25.808C131.881 30.896 131.113 36.008 130.345 41.144C129.625 46.232 128.833 51.128 127.969 55.832C127.297 59.384 126.409 62.456 125.305 65.048C124.249 67.688 122.809 69.92 120.985 71.744C119.497 73.232 117.817 74.36 115.945 75.128C114.121 75.896 112.225 76.28 110.257 76.28Z" fill="url(#paint4_radial_7_8)"/>
<path d="M147.772 60.08C146.284 60.08 145.036 59.696 144.028 58.928C143.068 58.112 142.588 56.936 142.588 55.4C142.588 54.44 142.684 53.408 142.876 52.304C143.068 51.152 143.284 49.928 143.524 48.632L148.492 25.88H142.516L142.732 25.016L145.324 24.728C146.668 24.584 147.844 24.248 148.852 23.72C149.86 23.192 150.82 22.448 151.732 21.488L158.644 14.504H159.724L157.708 24.368H165.556L165.196 25.88H157.348L152.38 49.856C152.188 50.768 152.044 51.56 151.948 52.232C151.852 52.856 151.804 53.384 151.804 53.816C151.804 54.296 151.948 54.68 152.236 54.968C152.524 55.256 152.836 55.4 153.172 55.4C153.844 55.4 154.564 55.136 155.332 54.608C156.1 54.032 157.06 53.192 158.212 52.088L159.076 52.808C157.876 54.584 156.316 56.24 154.396 57.776C152.476 59.312 150.268 60.08 147.772 60.08Z" fill="url(#paint5_radial_7_8)"/>
<path d="M170.941 60.08C169.453 60.08 168.229 59.696 167.269 58.928C166.309 58.16 165.829 57.032 165.829 55.544C165.829 54.68 165.925 53.648 166.117 52.448C166.309 51.248 166.525 50.048 166.765 48.848L170.149 32.648C170.581 30.68 169.885 29.288 168.061 28.472L166.909 27.896L166.981 27.104L180.517 23.216L181.237 23.864L175.621 49.928C175.429 50.792 175.285 51.536 175.189 52.16C175.093 52.736 175.045 53.312 175.045 53.888C175.045 54.944 175.525 55.472 176.485 55.472C177.205 55.472 177.925 55.256 178.645 54.824C179.365 54.344 180.277 53.576 181.381 52.52L182.029 53.168C180.829 54.944 179.293 56.552 177.421 57.992C175.597 59.384 173.437 60.08 170.941 60.08Z" fill="url(#paint6_radial_7_8)"/>
<path d="M185.784 59.504L185.136 59L190.68 32.504C191.112 30.632 190.44 29.288 188.664 28.472L187.44 27.896L187.512 27.176L200.904 23.216L201.552 23.792L199.896 32.504C202.392 29.672 204.936 27.44 207.528 25.808C210.12 24.128 212.568 23.288 214.872 23.288C216.408 23.288 217.68 23.768 218.688 24.728C219.696 25.64 220.2 27.08 220.2 29.048C220.2 30.056 220.104 31.112 219.912 32.216C219.72 33.272 219.48 34.376 219.192 35.528L215.376 50.864C215.184 51.632 215.04 52.28 214.944 52.808C214.848 53.288 214.8 53.72 214.8 54.104C214.8 55.112 215.208 55.616 216.024 55.616C217.368 55.616 219.072 54.536 221.136 52.376L221.856 53.096C220.656 54.872 219.072 56.48 217.104 57.92C215.136 59.36 212.952 60.08 210.552 60.08C208.968 60.08 207.744 59.72 206.88 59C206.016 58.232 205.584 57.176 205.584 55.832C205.584 54.824 205.704 53.792 205.944 52.736C206.184 51.632 206.448 50.504 206.736 49.352L209.544 38.12C209.928 36.584 210.24 35.216 210.48 34.016C210.72 32.816 210.84 31.712 210.84 30.704C210.84 29.84 210.648 29.24 210.264 28.904C209.88 28.52 209.352 28.328 208.68 28.328C207.528 28.328 206.16 28.832 204.576 29.84C203.04 30.848 201.336 32.432 199.464 34.592L197.448 43.664C196.92 46.208 196.416 48.752 195.936 51.296C195.456 53.84 194.976 56.408 194.496 59L185.784 59.504Z" fill="url(#paint7_radial_7_8)"/>
<path d="M108.888 4L111.133 10.9098H118.399L112.521 15.1803L114.766 22.0902L108.888 17.8197L103.01 22.0902L105.255 15.1803L99.3774 10.9098H106.643L108.888 4Z" fill="url(#paint8_radial_7_8)"/>
<path d="M177.888 4L180.133 10.9098H187.399L181.521 15.1803L183.766 22.0902L177.888 17.8197L172.01 22.0902L174.255 15.1803L168.377 10.9098H175.643L177.888 4Z" fill="url(#paint9_radial_7_8)"/>
</g>
<defs>
<filter id="filter0_di_7_8" x="0" y="0" width="225.856" height="80.28" filterUnits="userSpaceOnUse" color-interpolation-filters="sRGB">
<feFlood flood-opacity="0" result="BackgroundImageFix"/>
<feColorMatrix in="SourceAlpha" type="matrix" values="0 0 0 0 0 0 0 0 0 0 0 0 0 0 0 0 0 0 127 0" result="hardAlpha"/>
<feOffset/>
<feGaussianBlur stdDeviation="2"/>
<feComposite in2="hardAlpha" operator="out"/>
<feColorMatrix type="matrix" values="0 0 0 0 0.0901961 0 0 0 0 0.145098 0 0 0 0 0.329412 0 0 0 1 0"/>
<feBlend mode="normal" in2="BackgroundImageFix" result="effect1_dropShadow_7_8"/>
<feBlend mode="normal" in="SourceGraphic" in2="effect1_dropShadow_7_8" result="shape"/>
<feColorMatrix in="SourceAlpha" type="matrix" values="0 0 0 0 0 0 0 0 0 0 0 0 0 0 0 0 0 0 127 0" result="hardAlpha"/>
<feOffset/>
<feGaussianBlur stdDeviation="2.5"/>
<feComposite in2="hardAlpha" operator="arithmetic" k2="-1" k3="1"/>
<feColorMatrix type="matrix" values="0 0 0 0 0.0901961 0 0 0 0 0.145098 0 0 0 0 0.329412 0 0 0 1 0"/>
<feBlend mode="normal" in2="shape" result="effect2_innerShadow_7_8"/>
</filter>
<radialGradient id="paint0_radial_7_8" cx="0" cy="0" r="1" gradientUnits="userSpaceOnUse" gradientTransform="translate(112.928 42.044) scale(108.928 34.236)">
<stop stop-color="#172554"/>
<stop offset="1" stop-color="#172554" stop-opacity="0.25"/>
</radialGradient>
<radialGradient id="paint1_radial_7_8" cx="0" cy="0" r="1" gradientUnits="userSpaceOnUse" gradientTransform="translate(112.928 42.044) scale(108.928 34.236)">
<stop stop-color="#172554"/>
<stop offset="1" stop-color="#172554" stop-opacity="0.25"/>
</radialGradient>
<radialGradient id="paint2_radial_7_8" cx="0" cy="0" r="1" gradientUnits="userSpaceOnUse" gradientTransform="translate(112.928 42.044) scale(108.928 34.236)">
<stop stop-color="#172554"/>
<stop offset="1" stop-color="#172554" stop-opacity="0.25"/>
</radialGradient>
<radialGradient id="paint3_radial_7_8" cx="0" cy="0" r="1" gradientUnits="userSpaceOnUse" gradientTransform="translate(112.928 42.044) scale(108.928 34.236)">
<stop stop-color="#172554"/>
<stop offset="1" stop-color="#172554" stop-opacity="0.25"/>
</radialGradient>
<radialGradient id="paint4_radial_7_8" cx="0" cy="0" r="1" gradientUnits="userSpaceOnUse" gradientTransform="translate(112.928 42.044) scale(108.928 34.236)">
<stop stop-color="#172554"/>
<stop offset="1" stop-color="#172554" stop-opacity="0.25"/>
</radialGradient>
<radialGradient id="paint5_radial_7_8" cx="0" cy="0" r="1" gradientUnits="userSpaceOnUse" gradientTransform="translate(112.928 42.044) scale(108.928 34.236)">
<stop stop-color="#172554"/>
<stop offset="1" stop-color="#172554" stop-opacity="0.25"/>
</radialGradient>
<radialGradient id="paint6_radial_7_8" cx="0" cy="0" r="1" gradientUnits="userSpaceOnUse" gradientTransform="translate(112.928 42.044) scale(108.928 34.236)">
<stop stop-color="#172554"/>
<stop offset="1" stop-color="#172554" stop-opacity="0.25"/>
</radialGradient>
<radialGradient id="paint7_radial_7_8" cx="0" cy="0" r="1" gradientUnits="userSpaceOnUse" gradientTransform="translate(112.928 42.044) scale(108.928 34.236)">
<stop stop-color="#172554"/>
<stop offset="1" stop-color="#172554" stop-opacity="0.25"/>
</radialGradient>
<radialGradient id="paint8_radial_7_8" cx="0" cy="0" r="1" gradientUnits="userSpaceOnUse" gradientTransform="translate(108.888 14) scale(10)">
<stop stop-color="#172554"/>
<stop offset="1" stop-color="#172554" stop-opacity="0.25"/>
</radialGradient>
<radialGradient id="paint9_radial_7_8" cx="0" cy="0" r="1" gradientUnits="userSpaceOnUse" gradientTransform="translate(177.888 14) scale(10)">
<stop stop-color="#172554"/>
<stop offset="1" stop-color="#172554" stop-opacity="0.25"/>
</radialGradient>
</defs>
</svg>
