<svg width="224" height="99" viewBox="0 0 224 99" fill="none" xmlns="http://www.w3.org/2000/svg">
<mask id="path-1-outside-1_11_15" maskUnits="userSpaceOnUse" x="4" y="23" width="220" height="70" fill="black">
<rect fill="white" x="4" y="23" width="220" height="70"/>
<path d="M10.368 76.08C8.88 76.08 7.632 75.696 6.624 74.928C5.664 74.112 5.184 72.936 5.184 71.4C5.184 70.44 5.28 69.408 5.472 68.304C5.664 67.152 5.88 65.928 6.12 64.632L11.088 41.88H5.112L5.328 41.016L7.92 40.728C9.264 40.584 10.44 40.248 11.448 39.72C12.456 39.192 13.416 38.448 14.328 37.488L21.24 30.504H22.32L20.304 40.368H28.152L27.792 41.88H19.944L14.976 65.856C14.784 66.768 14.64 67.56 14.544 68.232C14.448 68.856 14.4 69.384 14.4 69.816C14.4 70.296 14.544 70.68 14.832 70.968C15.12 71.256 15.432 71.4 15.768 71.4C16.44 71.4 17.16 71.136 17.928 70.608C18.696 70.032 19.656 69.192 20.808 68.088L21.672 68.808C20.472 70.584 18.912 72.24 16.992 73.776C15.072 75.312 12.864 76.08 10.368 76.08ZM26.5635 75.432L26.1315 75L32.6835 43.608C33.0675 41.784 33.4035 40.152 33.6915 38.712C33.9795 37.224 34.2915 35.568 34.6275 33.744C35.0115 31.68 34.2195 30.312 32.2515 29.64L31.0995 29.28L31.2435 28.56L44.9955 24.528L45.4995 25.032L40.6035 48C43.0035 45.504 45.5475 43.44 48.2355 41.808C50.9715 40.128 53.4915 39.288 55.7955 39.288C57.3315 39.288 58.5795 39.768 59.5395 40.728C60.5475 41.64 61.0515 43.08 61.0515 45.048C61.0515 46.056 60.9555 47.112 60.7635 48.216C60.5715 49.272 60.3315 50.376 60.0435 51.528L56.4435 66.216C56.2515 67.128 56.0595 67.92 55.8675 68.592C55.6755 69.216 55.5795 69.72 55.5795 70.104C55.5795 71.112 56.0115 71.616 56.8755 71.616C58.1235 71.616 59.8755 70.56 62.1315 68.448L62.7795 69.096C61.6275 70.872 60.0675 72.48 58.0995 73.92C56.1315 75.36 53.8995 76.08 51.4035 76.08C49.8195 76.08 48.5955 75.72 47.7315 75C46.8675 74.232 46.4355 73.176 46.4355 71.832C46.4355 70.824 46.5555 69.792 46.7955 68.736C47.0355 67.632 47.3235 66.504 47.6595 65.352L50.8995 52.68C51.2355 51.384 51.5235 50.208 51.7635 49.152C52.0515 48.048 52.1955 47.112 52.1955 46.344C52.1955 44.664 51.4035 43.824 49.8195 43.824C47.4675 43.824 44.3715 45.744 40.5315 49.584L38.3715 59.592C37.7475 62.52 37.1955 65.184 36.7155 67.584C36.2835 69.936 35.8515 72.408 35.4195 75L26.5635 75.432ZM66.7339 75.504L66.0139 75L71.4859 48.648C71.7259 47.4 71.6539 46.488 71.2699 45.912C70.8859 45.288 70.2379 44.784 69.3259 44.4L68.2459 43.896L68.3899 43.176L80.9179 39.216L81.6379 39.864L79.6939 51.744C80.7019 49.44 81.8779 47.352 83.2219 45.48C84.5659 43.608 85.9819 42.12 87.4699 41.016C88.9579 39.864 90.4459 39.288 91.9339 39.288C93.4219 39.288 94.6219 39.696 95.5339 40.512C96.4459 41.28 96.9019 42.312 96.9019 43.608C96.9019 44.952 96.4939 46.056 95.6779 46.92C94.9099 47.784 93.8539 48.216 92.5099 48.216C91.4539 48.216 90.4459 47.952 89.4859 47.424C88.5259 46.848 87.5899 46.032 86.6779 44.976C84.9979 46.224 83.5579 47.856 82.3579 49.872C81.1579 51.84 80.0539 54 79.0459 56.352L78.3259 59.664C77.7979 62.208 77.2939 64.752 76.8139 67.296C76.3339 69.84 75.8539 72.408 75.3739 75L66.7339 75.504ZM103.006 76.08C101.518 76.08 100.294 75.696 99.3341 74.928C98.3741 74.16 97.8941 73.032 97.8941 71.544C97.8941 70.68 97.9901 69.648 98.1821 68.448C98.3741 67.248 98.5901 66.048 98.8301 64.848L102.214 48.648C102.646 46.68 101.95 45.288 100.126 44.472L98.9741 43.896L99.0461 43.104L112.582 39.216L113.302 39.864L107.686 65.928C107.494 66.792 107.35 67.536 107.254 68.16C107.158 68.736 107.11 69.312 107.11 69.888C107.11 70.944 107.59 71.472 108.55 71.472C109.414 71.472 110.278 71.16 111.142 70.536C112.054 69.864 113.182 68.784 114.526 67.296L115.246 67.872C114.382 69.264 113.326 70.584 112.078 71.832C110.878 73.08 109.51 74.112 107.974 74.928C106.486 75.696 104.83 76.08 103.006 76.08ZM111.369 92.28C109.353 92.28 107.529 91.824 105.897 90.912C104.265 90 103.449 88.704 103.449 87.024C103.449 85.776 103.857 84.816 104.673 84.144C105.489 83.472 106.449 83.136 107.553 83.136C108.657 83.136 109.689 83.424 110.649 84C111.561 84.576 112.377 85.584 113.097 87.024L113.817 88.824C114.105 89.352 114.441 89.64 114.825 89.688C115.209 89.784 115.569 89.544 115.905 88.968C116.145 88.536 116.361 88.032 116.553 87.456C116.745 86.928 116.985 86.256 117.273 85.44C117.945 83.808 118.521 81.816 119.001 79.464C119.529 77.16 120.009 74.592 120.441 71.76C121.209 67.056 121.953 62.232 122.673 57.288C123.393 52.344 124.137 47.136 124.905 41.664H119.073L119.217 41.016L122.025 40.728C123.177 40.584 124.041 40.2 124.617 39.576C125.193 38.952 125.649 38.04 125.985 36.84C127.281 32.664 129.369 29.448 132.249 27.192C135.129 24.936 138.681 23.808 142.905 23.808C145.305 23.808 147.249 24.336 148.737 25.392C150.225 26.4 150.969 27.696 150.969 29.28C150.969 30.576 150.561 31.608 149.745 32.376C148.929 33.144 147.945 33.528 146.793 33.528C144.537 33.528 142.665 32.016 141.177 28.992L140.889 27.84C140.457 26.832 139.953 26.352 139.377 26.4C138.849 26.4 138.393 26.76 138.009 27.48C137.193 28.632 136.449 30.24 135.777 32.304C135.105 34.368 134.505 37.056 133.977 40.368H142.761L142.401 41.88L133.761 41.808C132.993 46.896 132.225 52.008 131.457 57.144C130.737 62.232 129.945 67.128 129.081 71.832C128.409 75.384 127.521 78.456 126.417 81.048C125.361 83.688 123.921 85.92 122.097 87.744C120.609 89.232 118.929 90.36 117.057 91.128C115.233 91.896 113.337 92.28 111.369 92.28ZM148.884 76.08C147.396 76.08 146.148 75.696 145.14 74.928C144.18 74.112 143.7 72.936 143.7 71.4C143.7 70.44 143.796 69.408 143.988 68.304C144.18 67.152 144.396 65.928 144.636 64.632L149.604 41.88H143.628L143.844 41.016L146.436 40.728C147.78 40.584 148.956 40.248 149.964 39.72C150.972 39.192 151.932 38.448 152.844 37.488L159.756 30.504H160.836L158.82 40.368H166.668L166.308 41.88H158.46L153.492 65.856C153.3 66.768 153.156 67.56 153.06 68.232C152.964 68.856 152.916 69.384 152.916 69.816C152.916 70.296 153.06 70.68 153.348 70.968C153.636 71.256 153.948 71.4 154.284 71.4C154.956 71.4 155.676 71.136 156.444 70.608C157.212 70.032 158.172 69.192 159.324 68.088L160.188 68.808C158.988 70.584 157.428 72.24 155.508 73.776C153.588 75.312 151.38 76.08 148.884 76.08ZM172.194 76.08C170.706 76.08 169.482 75.696 168.522 74.928C167.562 74.16 167.082 73.032 167.082 71.544C167.082 70.68 167.178 69.648 167.37 68.448C167.562 67.248 167.778 66.048 168.018 64.848L171.402 48.648C171.834 46.68 171.138 45.288 169.314 44.472L168.162 43.896L168.234 43.104L181.77 39.216L182.49 39.864L176.874 65.928C176.682 66.792 176.538 67.536 176.442 68.16C176.346 68.736 176.298 69.312 176.298 69.888C176.298 70.944 176.778 71.472 177.738 71.472C178.602 71.472 179.466 71.16 180.33 70.536C181.242 69.864 182.37 68.784 183.714 67.296L184.434 67.872C183.57 69.264 182.514 70.584 181.266 71.832C180.066 73.08 178.698 74.112 177.162 74.928C175.674 75.696 174.018 76.08 172.194 76.08ZM187.037 75.504L186.389 75L191.933 48.504C192.365 46.632 191.693 45.288 189.917 44.472L188.693 43.896L188.765 43.176L202.157 39.216L202.805 39.792L201.149 48.504C203.645 45.672 206.189 43.44 208.781 41.808C211.373 40.128 213.821 39.288 216.125 39.288C217.661 39.288 218.933 39.768 219.941 40.728C220.949 41.64 221.453 43.08 221.453 45.048C221.453 46.056 221.357 47.112 221.165 48.216C220.973 49.272 220.733 50.376 220.445 51.528L216.629 66.864C216.437 67.632 216.293 68.28 216.197 68.808C216.101 69.288 216.053 69.72 216.053 70.104C216.053 71.112 216.461 71.616 217.277 71.616C218.621 71.616 220.325 70.536 222.389 68.376L223.109 69.096C221.909 70.872 220.325 72.48 218.357 73.92C216.389 75.36 214.205 76.08 211.805 76.08C210.221 76.08 208.997 75.72 208.133 75C207.269 74.232 206.837 73.176 206.837 71.832C206.837 70.824 206.957 69.792 207.197 68.736C207.437 67.632 207.701 66.504 207.989 65.352L210.797 54.12C211.181 52.584 211.493 51.216 211.733 50.016C211.973 48.816 212.093 47.712 212.093 46.704C212.093 45.84 211.901 45.24 211.517 44.904C211.133 44.52 210.605 44.328 209.933 44.328C208.781 44.328 207.413 44.832 205.829 45.84C204.293 46.848 202.589 48.432 200.717 50.592L198.701 59.664C198.173 62.208 197.669 64.752 197.189 67.296C196.709 69.84 196.229 72.408 195.749 75L187.037 75.504Z"/>
</mask>
<path d="M10.368 76.08C8.88 76.08 7.632 75.696 6.624 74.928C5.664 74.112 5.184 72.936 5.184 71.4C5.184 70.44 5.28 69.408 5.472 68.304C5.664 67.152 5.88 65.928 6.12 64.632L11.088 41.88H5.112L5.328 41.016L7.92 40.728C9.264 40.584 10.44 40.248 11.448 39.72C12.456 39.192 13.416 38.448 14.328 37.488L21.24 30.504H22.32L20.304 40.368H28.152L27.792 41.88H19.944L14.976 65.856C14.784 66.768 14.64 67.56 14.544 68.232C14.448 68.856 14.4 69.384 14.4 69.816C14.4 70.296 14.544 70.68 14.832 70.968C15.12 71.256 15.432 71.4 15.768 71.4C16.44 71.4 17.16 71.136 17.928 70.608C18.696 70.032 19.656 69.192 20.808 68.088L21.672 68.808C20.472 70.584 18.912 72.24 16.992 73.776C15.072 75.312 12.864 76.08 10.368 76.08ZM26.5635 75.432L26.1315 75L32.6835 43.608C33.0675 41.784 33.4035 40.152 33.6915 38.712C33.9795 37.224 34.2915 35.568 34.6275 33.744C35.0115 31.68 34.2195 30.312 32.2515 29.64L31.0995 29.28L31.2435 28.56L44.9955 24.528L45.4995 25.032L40.6035 48C43.0035 45.504 45.5475 43.44 48.2355 41.808C50.9715 40.128 53.4915 39.288 55.7955 39.288C57.3315 39.288 58.5795 39.768 59.5395 40.728C60.5475 41.64 61.0515 43.08 61.0515 45.048C61.0515 46.056 60.9555 47.112 60.7635 48.216C60.5715 49.272 60.3315 50.376 60.0435 51.528L56.4435 66.216C56.2515 67.128 56.0595 67.92 55.8675 68.592C55.6755 69.216 55.5795 69.72 55.5795 70.104C55.5795 71.112 56.0115 71.616 56.8755 71.616C58.1235 71.616 59.8755 70.56 62.1315 68.448L62.7795 69.096C61.6275 70.872 60.0675 72.48 58.0995 73.92C56.1315 75.36 53.8995 76.08 51.4035 76.08C49.8195 76.08 48.5955 75.72 47.7315 75C46.8675 74.232 46.4355 73.176 46.4355 71.832C46.4355 70.824 46.5555 69.792 46.7955 68.736C47.0355 67.632 47.3235 66.504 47.6595 65.352L50.8995 52.68C51.2355 51.384 51.5235 50.208 51.7635 49.152C52.0515 48.048 52.1955 47.112 52.1955 46.344C52.1955 44.664 51.4035 43.824 49.8195 43.824C47.4675 43.824 44.3715 45.744 40.5315 49.584L38.3715 59.592C37.7475 62.52 37.1955 65.184 36.7155 67.584C36.2835 69.936 35.8515 72.408 35.4195 75L26.5635 75.432ZM66.7339 75.504L66.0139 75L71.4859 48.648C71.7259 47.4 71.6539 46.488 71.2699 45.912C70.8859 45.288 70.2379 44.784 69.3259 44.4L68.2459 43.896L68.3899 43.176L80.9179 39.216L81.6379 39.864L79.6939 51.744C80.7019 49.44 81.8779 47.352 83.2219 45.48C84.5659 43.608 85.9819 42.12 87.4699 41.016C88.9579 39.864 90.4459 39.288 91.9339 39.288C93.4219 39.288 94.6219 39.696 95.5339 40.512C96.4459 41.28 96.9019 42.312 96.9019 43.608C96.9019 44.952 96.4939 46.056 95.6779 46.92C94.9099 47.784 93.8539 48.216 92.5099 48.216C91.4539 48.216 90.4459 47.952 89.4859 47.424C88.5259 46.848 87.5899 46.032 86.6779 44.976C84.9979 46.224 83.5579 47.856 82.3579 49.872C81.1579 51.84 80.0539 54 79.0459 56.352L78.3259 59.664C77.7979 62.208 77.2939 64.752 76.8139 67.296C76.3339 69.84 75.8539 72.408 75.3739 75L66.7339 75.504ZM103.006 76.08C101.518 76.08 100.294 75.696 99.3341 74.928C98.3741 74.16 97.8941 73.032 97.8941 71.544C97.8941 70.68 97.9901 69.648 98.1821 68.448C98.3741 67.248 98.5901 66.048 98.8301 64.848L102.214 48.648C102.646 46.68 101.95 45.288 100.126 44.472L98.9741 43.896L99.0461 43.104L112.582 39.216L113.302 39.864L107.686 65.928C107.494 66.792 107.35 67.536 107.254 68.16C107.158 68.736 107.11 69.312 107.11 69.888C107.11 70.944 107.59 71.472 108.55 71.472C109.414 71.472 110.278 71.16 111.142 70.536C112.054 69.864 113.182 68.784 114.526 67.296L115.246 67.872C114.382 69.264 113.326 70.584 112.078 71.832C110.878 73.08 109.51 74.112 107.974 74.928C106.486 75.696 104.83 76.08 103.006 76.08ZM111.369 92.28C109.353 92.28 107.529 91.824 105.897 90.912C104.265 90 103.449 88.704 103.449 87.024C103.449 85.776 103.857 84.816 104.673 84.144C105.489 83.472 106.449 83.136 107.553 83.136C108.657 83.136 109.689 83.424 110.649 84C111.561 84.576 112.377 85.584 113.097 87.024L113.817 88.824C114.105 89.352 114.441 89.64 114.825 89.688C115.209 89.784 115.569 89.544 115.905 88.968C116.145 88.536 116.361 88.032 116.553 87.456C116.745 86.928 116.985 86.256 117.273 85.44C117.945 83.808 118.521 81.816 119.001 79.464C119.529 77.16 120.009 74.592 120.441 71.76C121.209 67.056 121.953 62.232 122.673 57.288C123.393 52.344 124.137 47.136 124.905 41.664H119.073L119.217 41.016L122.025 40.728C123.177 40.584 124.041 40.2 124.617 39.576C125.193 38.952 125.649 38.04 125.985 36.84C127.281 32.664 129.369 29.448 132.249 27.192C135.129 24.936 138.681 23.808 142.905 23.808C145.305 23.808 147.249 24.336 148.737 25.392C150.225 26.4 150.969 27.696 150.969 29.28C150.969 30.576 150.561 31.608 149.745 32.376C148.929 33.144 147.945 33.528 146.793 33.528C144.537 33.528 142.665 32.016 141.177 28.992L140.889 27.84C140.457 26.832 139.953 26.352 139.377 26.4C138.849 26.4 138.393 26.76 138.009 27.48C137.193 28.632 136.449 30.24 135.777 32.304C135.105 34.368 134.505 37.056 133.977 40.368H142.761L142.401 41.88L133.761 41.808C132.993 46.896 132.225 52.008 131.457 57.144C130.737 62.232 129.945 67.128 129.081 71.832C128.409 75.384 127.521 78.456 126.417 81.048C125.361 83.688 123.921 85.92 122.097 87.744C120.609 89.232 118.929 90.36 117.057 91.128C115.233 91.896 113.337 92.28 111.369 92.28ZM148.884 76.08C147.396 76.08 146.148 75.696 145.14 74.928C144.18 74.112 143.7 72.936 143.7 71.4C143.7 70.44 143.796 69.408 143.988 68.304C144.18 67.152 144.396 65.928 144.636 64.632L149.604 41.88H143.628L143.844 41.016L146.436 40.728C147.78 40.584 148.956 40.248 149.964 39.72C150.972 39.192 151.932 38.448 152.844 37.488L159.756 30.504H160.836L158.82 40.368H166.668L166.308 41.88H158.46L153.492 65.856C153.3 66.768 153.156 67.56 153.06 68.232C152.964 68.856 152.916 69.384 152.916 69.816C152.916 70.296 153.06 70.68 153.348 70.968C153.636 71.256 153.948 71.4 154.284 71.4C154.956 71.4 155.676 71.136 156.444 70.608C157.212 70.032 158.172 69.192 159.324 68.088L160.188 68.808C158.988 70.584 157.428 72.24 155.508 73.776C153.588 75.312 151.38 76.08 148.884 76.08ZM172.194 76.08C170.706 76.08 169.482 75.696 168.522 74.928C167.562 74.16 167.082 73.032 167.082 71.544C167.082 70.68 167.178 69.648 167.37 68.448C167.562 67.248 167.778 66.048 168.018 64.848L171.402 48.648C171.834 46.68 171.138 45.288 169.314 44.472L168.162 43.896L168.234 43.104L181.77 39.216L182.49 39.864L176.874 65.928C176.682 66.792 176.538 67.536 176.442 68.16C176.346 68.736 176.298 69.312 176.298 69.888C176.298 70.944 176.778 71.472 177.738 71.472C178.602 71.472 179.466 71.16 180.33 70.536C181.242 69.864 182.37 68.784 183.714 67.296L184.434 67.872C183.57 69.264 182.514 70.584 181.266 71.832C180.066 73.08 178.698 74.112 177.162 74.928C175.674 75.696 174.018 76.08 172.194 76.08ZM187.037 75.504L186.389 75L191.933 48.504C192.365 46.632 191.693 45.288 189.917 44.472L188.693 43.896L188.765 43.176L202.157 39.216L202.805 39.792L201.149 48.504C203.645 45.672 206.189 43.44 208.781 41.808C211.373 40.128 213.821 39.288 216.125 39.288C217.661 39.288 218.933 39.768 219.941 40.728C220.949 41.64 221.453 43.08 221.453 45.048C221.453 46.056 221.357 47.112 221.165 48.216C220.973 49.272 220.733 50.376 220.445 51.528L216.629 66.864C216.437 67.632 216.293 68.28 216.197 68.808C216.101 69.288 216.053 69.72 216.053 70.104C216.053 71.112 216.461 71.616 217.277 71.616C218.621 71.616 220.325 70.536 222.389 68.376L223.109 69.096C221.909 70.872 220.325 72.48 218.357 73.92C216.389 75.36 214.205 76.08 211.805 76.08C210.221 76.08 208.997 75.72 208.133 75C207.269 74.232 206.837 73.176 206.837 71.832C206.837 70.824 206.957 69.792 207.197 68.736C207.437 67.632 207.701 66.504 207.989 65.352L210.797 54.12C211.181 52.584 211.493 51.216 211.733 50.016C211.973 48.816 212.093 47.712 212.093 46.704C212.093 45.84 211.901 45.24 211.517 44.904C211.133 44.52 210.605 44.328 209.933 44.328C208.781 44.328 207.413 44.832 205.829 45.84C204.293 46.848 202.589 48.432 200.717 50.592L198.701 59.664C198.173 62.208 197.669 64.752 197.189 67.296C196.709 69.84 196.229 72.408 195.749 75L187.037 75.504Z" fill="#172554"/>
<path d="M6.624 74.928L6.30018 75.309L6.31035 75.3176L6.32098 75.3257L6.624 74.928ZM5.472 68.304L5.96462 68.3897L5.9652 68.3862L5.472 68.304ZM6.12 64.632L5.63151 64.5253L5.62981 64.5331L5.62836 64.541L6.12 64.632ZM11.088 41.88L11.5765 41.9867L11.709 41.38H11.088V41.88ZM5.112 41.88L4.62693 41.7587L4.47161 42.38H5.112V41.88ZM5.328 41.016L5.27278 40.5191L4.92725 40.5574L4.84293 40.8947L5.328 41.016ZM7.92 40.728L7.86673 40.2308L7.86479 40.2311L7.92 40.728ZM11.448 39.72L11.68 40.1629L11.68 40.1629L11.448 39.72ZM14.328 37.488L13.9725 37.1362L13.9655 37.1436L14.328 37.488ZM21.24 30.504V30.004H21.0314L20.8846 30.1523L21.24 30.504ZM22.32 30.504L22.8099 30.6041L22.9325 30.004H22.32V30.504ZM20.304 40.368L19.8141 40.2679L19.6915 40.868H20.304V40.368ZM28.152 40.368L28.6384 40.4838L28.785 39.868H28.152V40.368ZM27.792 41.88V42.38H28.1869L28.2784 41.9958L27.792 41.88ZM19.944 41.88V41.38H19.537L19.4544 41.7786L19.944 41.88ZM14.976 65.856L15.4653 65.959L15.4656 65.9574L14.976 65.856ZM14.544 68.232L15.0382 68.308L15.039 68.3027L14.544 68.232ZM14.832 70.968L15.1856 70.6144L15.1856 70.6144L14.832 70.968ZM17.928 70.608L18.2113 71.02L18.2198 71.0142L18.228 71.008L17.928 70.608ZM20.808 68.088L21.1281 67.7039L20.7847 67.4178L20.462 67.727L20.808 68.088ZM21.672 68.808L22.0863 69.0879L22.3394 68.7133L21.9921 68.4239L21.672 68.808ZM10.368 75.58C8.9697 75.58 7.83341 75.2209 6.92702 74.5303L6.32098 75.3257C7.43059 76.1711 8.7903 76.58 10.368 76.58V75.58ZM6.94782 74.547C6.12386 73.8467 5.684 72.8245 5.684 71.4H4.684C4.684 73.0475 5.20414 74.3773 6.30018 75.309L6.94782 74.547ZM5.684 71.4C5.684 70.473 5.77673 69.4699 5.96461 68.3897L4.97939 68.2183C4.78327 69.3461 4.684 70.407 4.684 71.4H5.684ZM5.9652 68.3862C6.15665 67.2375 6.37212 66.0165 6.61164 64.723L5.62836 64.541C5.38788 65.8395 5.17135 67.0665 4.9788 68.2218L5.9652 68.3862ZM6.60849 64.7387L11.5765 41.9867L10.5995 41.7733L5.63151 64.5253L6.60849 64.7387ZM11.088 41.38H5.112V42.38H11.088V41.38ZM5.59707 42.0013L5.81307 41.1373L4.84293 40.8947L4.62693 41.7587L5.59707 42.0013ZM5.38322 41.5129L7.97522 41.2249L7.86479 40.2311L5.27278 40.5191L5.38322 41.5129ZM7.97327 41.2252C9.36824 41.0757 10.607 40.725 11.68 40.1629L11.216 39.2771C10.273 39.771 9.15976 40.0923 7.86673 40.2308L7.97327 41.2252ZM11.68 40.1629C12.7438 39.6057 13.7468 38.8258 14.6905 37.8324L13.9655 37.1436C13.0852 38.0702 12.1682 38.7783 11.216 39.2771L11.68 40.1629ZM14.6834 37.8397L21.5954 30.8557L20.8846 30.1523L13.9726 37.1363L14.6834 37.8397ZM21.24 31.004H22.32V30.004H21.24V31.004ZM21.8301 30.4039L19.8141 40.2679L20.7939 40.4681L22.8099 30.6041L21.8301 30.4039ZM20.304 40.868H28.152V39.868H20.304V40.868ZM27.6656 40.2522L27.3056 41.7642L28.2784 41.9958L28.6384 40.4838L27.6656 40.2522ZM27.792 41.38H19.944V42.38H27.792V41.38ZM19.4544 41.7786L14.4864 65.7546L15.4656 65.9574L20.4336 41.9814L19.4544 41.7786ZM14.4867 65.753C14.2932 66.6721 14.147 67.4753 14.049 68.1613L15.039 68.3027C15.133 67.6447 15.2748 66.8639 15.4653 65.959L14.4867 65.753ZM14.0498 68.156C13.9515 68.7948 13.9 69.3499 13.9 69.816H14.9C14.9 69.4181 14.9445 68.9172 15.0382 68.308L14.0498 68.156ZM13.9 69.816C13.9 70.4031 14.0801 70.9232 14.4784 71.3216L15.1856 70.6144C15.0079 70.4368 14.9 70.1889 14.9 69.816H13.9ZM14.4784 71.3216C14.839 71.6821 15.2721 71.9 15.768 71.9V70.9C15.5919 70.9 15.401 70.8299 15.1856 70.6144L14.4784 71.3216ZM15.768 71.9C16.5734 71.9 17.3912 71.5838 18.2113 71.02L17.6447 70.196C16.9288 70.6882 16.3066 70.9 15.768 70.9V71.9ZM18.228 71.008C19.0191 70.4147 19.9956 69.5591 21.154 68.449L20.462 67.727C19.3164 68.8249 18.3729 69.6493 17.628 70.208L18.228 71.008ZM20.4879 68.4721L21.3519 69.1921L21.9921 68.4239L21.1281 67.7039L20.4879 68.4721ZM21.2577 68.5281C20.0897 70.2567 18.566 71.8765 16.6797 73.3856L17.3043 74.1664C19.258 72.6035 20.8543 70.9113 22.0863 69.0879L21.2577 68.5281ZM16.6797 73.3856C14.8498 74.8495 12.7523 75.58 10.368 75.58V76.58C12.9757 76.58 15.2942 75.7745 17.3043 74.1664L16.6797 73.3856ZM26.5635 75.432L26.2099 75.7856L26.3666 75.9422L26.5879 75.9314L26.5635 75.432ZM26.1315 75L25.642 74.8978L25.5868 75.1624L25.7779 75.3536L26.1315 75ZM32.6835 43.608L32.1942 43.505L32.194 43.5058L32.6835 43.608ZM33.6915 38.712L34.1818 38.8101L34.1824 38.807L33.6915 38.712ZM34.6275 33.744L34.1359 33.6525L34.1358 33.6534L34.6275 33.744ZM32.2515 29.64L32.4131 29.1667L32.4006 29.1628L32.2515 29.64ZM31.0995 29.28L30.6092 29.1819L30.521 29.6231L30.9504 29.7572L31.0995 29.28ZM31.2435 28.56L31.1028 28.0802L30.8125 28.1653L30.7532 28.4619L31.2435 28.56ZM44.9955 24.528L45.3491 24.1744L45.1394 23.9648L44.8548 24.0482L44.9955 24.528ZM45.4995 25.032L45.9885 25.1362L46.0452 24.8705L45.8531 24.6784L45.4995 25.032ZM40.6035 48L40.1145 47.8958L39.7491 49.61L40.9639 48.3466L40.6035 48ZM48.2355 41.808L48.495 42.2354L48.4971 42.2341L48.2355 41.808ZM59.5395 40.728L59.1859 41.0816L59.1948 41.0904L59.204 41.0988L59.5395 40.728ZM60.7635 48.216L61.2555 48.3054L61.2561 48.3017L60.7635 48.216ZM60.0435 51.528L59.5584 51.4067L59.5579 51.409L60.0435 51.528ZM56.4435 66.216L55.9579 66.097L55.9559 66.105L55.9542 66.113L56.4435 66.216ZM55.8675 68.592L56.3455 68.7391L56.3483 68.7294L55.8675 68.592ZM62.1315 68.448L62.4851 68.0944L62.143 67.7524L61.7898 68.083L62.1315 68.448ZM62.7795 69.096L63.199 69.3681L63.4192 69.0286L63.1331 68.7424L62.7795 69.096ZM47.7315 75L47.3993 75.3737L47.4053 75.379L47.4114 75.3841L47.7315 75ZM46.7955 68.736L47.2831 68.8468L47.2841 68.8422L46.7955 68.736ZM47.6595 65.352L48.1395 65.492L48.1418 65.484L48.1439 65.4759L47.6595 65.352ZM50.8995 52.68L50.4155 52.5545L50.4151 52.5561L50.8995 52.68ZM51.7635 49.152L51.2797 49.0258L51.2777 49.0335L51.2759 49.0412L51.7635 49.152ZM40.5315 49.584L40.1779 49.2304L40.0738 49.3346L40.0428 49.4785L40.5315 49.584ZM38.3715 59.592L37.8828 59.4865L37.8825 59.4878L38.3715 59.592ZM36.7155 67.584L36.2251 67.4859L36.2237 67.4937L36.7155 67.584ZM35.4195 75L35.4439 75.4994L35.8464 75.4798L35.9127 75.0822L35.4195 75ZM26.9171 75.0784L26.4851 74.6464L25.7779 75.3536L26.2099 75.7856L26.9171 75.0784ZM26.621 75.1022L33.173 43.7102L32.194 43.5058L25.642 74.8978L26.621 75.1022ZM33.1728 43.711C33.557 41.8858 33.8934 40.2521 34.1818 38.8101L33.2012 38.6139C32.9136 40.0519 32.578 41.6822 32.1942 43.505L33.1728 43.711ZM34.1824 38.807C34.4707 37.3173 34.783 35.6597 35.1192 33.8346L34.1358 33.6534C33.8 35.4763 33.4883 37.1307 33.2006 38.617L34.1824 38.807ZM35.1191 33.8355C35.3257 32.725 35.2273 31.7366 34.7542 30.9195C34.2807 30.1017 33.4747 29.5293 32.4131 29.1668L32.0899 30.1132C32.9963 30.4227 33.5703 30.8703 33.8888 31.4205C34.2077 31.9714 34.3133 32.6989 34.1359 33.6525L35.1191 33.8355ZM32.4006 29.1628L31.2486 28.8028L30.9504 29.7572L32.1024 30.1172L32.4006 29.1628ZM31.5898 29.3781L31.7338 28.6581L30.7532 28.4619L30.6092 29.1819L31.5898 29.3781ZM31.3842 29.0398L45.1362 25.0078L44.8548 24.0482L31.1028 28.0802L31.3842 29.0398ZM44.6419 24.8816L45.1459 25.3856L45.8531 24.6784L45.3491 24.1744L44.6419 24.8816ZM45.0105 24.9278L40.1145 47.8958L41.0925 48.1042L45.9885 25.1362L45.0105 24.9278ZM40.9639 48.3466C43.3369 45.8786 45.8475 43.8428 48.495 42.2354L47.976 41.3806C45.2475 43.0372 42.6701 45.1294 40.2431 47.6534L40.9639 48.3466ZM48.4971 42.2341C51.1841 40.5842 53.6134 39.788 55.7955 39.788V38.788C53.3696 38.788 50.7589 39.6718 47.9739 41.3819L48.4971 42.2341ZM55.7955 39.788C57.2179 39.788 58.3323 40.2279 59.1859 41.0816L59.8931 40.3744C58.8267 39.3081 57.4451 38.788 55.7955 38.788V39.788ZM59.204 41.0988C60.0675 41.88 60.5515 43.1569 60.5515 45.048H61.5515C61.5515 43.0031 61.0275 41.4 59.875 40.3572L59.204 41.0988ZM60.5515 45.048C60.5515 46.0243 60.4585 47.0515 60.2709 48.1303L61.2561 48.3017C61.4525 47.1725 61.5515 46.0877 61.5515 45.048H60.5515ZM60.2716 48.1266C60.0817 49.1708 59.8441 50.2642 59.5584 51.4067L60.5286 51.6493C60.8189 50.4878 61.0613 49.3732 61.2554 48.3054L60.2716 48.1266ZM59.5579 51.409L55.9579 66.097L56.9291 66.335L60.5291 51.647L59.5579 51.409ZM55.9542 66.113C55.7639 67.017 55.5746 67.797 55.3867 68.4546L56.3483 68.7294C56.5444 68.043 56.7391 67.239 56.9328 66.319L55.9542 66.113ZM55.3896 68.445C55.1917 69.0882 55.0795 69.6473 55.0795 70.104H56.0795C56.0795 69.7927 56.1593 69.3438 56.3454 68.739L55.3896 68.445ZM55.0795 70.104C55.0795 70.6678 55.1987 71.184 55.5239 71.5634C55.8617 71.9575 56.3446 72.116 56.8755 72.116V71.116C56.5424 71.116 56.3773 71.0225 56.2831 70.9126C56.1763 70.788 56.0795 70.5482 56.0795 70.104H55.0795ZM56.8755 72.116C57.6313 72.116 58.4743 71.8003 59.3836 71.2522C60.3007 70.6995 61.3312 69.8821 62.4732 68.813L61.7898 68.083C60.6758 69.1259 59.7023 69.8925 58.8674 70.3958C58.0247 70.9037 57.3677 71.116 56.8755 71.116V72.116ZM61.7779 68.8016L62.4259 69.4496L63.1331 68.7424L62.4851 68.0944L61.7779 68.8016ZM62.36 68.8239C61.2457 70.5418 59.7305 72.107 57.8042 73.5165L58.3948 74.3235C60.4045 72.853 62.0093 71.2022 63.199 69.3681L62.36 68.8239ZM57.8042 73.5165C55.9241 74.8922 53.796 75.58 51.4035 75.58V76.58C54.003 76.58 56.3389 75.8278 58.3948 74.3235L57.8042 73.5165ZM51.4035 75.58C49.8893 75.58 48.7952 75.2355 48.0516 74.6159L47.4114 75.3841C48.3958 76.2045 49.7497 76.58 51.4035 76.58V75.58ZM48.0637 74.6263C47.3242 73.969 46.9355 73.0588 46.9355 71.832H45.9355C45.9355 73.2932 46.4108 74.495 47.3993 75.3737L48.0637 74.6263ZM46.9355 71.832C46.9355 70.8639 47.0507 69.8691 47.2831 68.8468L46.3079 68.6252C46.0603 69.7149 45.9355 70.7841 45.9355 71.832H46.9355ZM47.2841 68.8422C47.5215 67.7502 47.8066 66.6335 48.1395 65.492L47.1795 65.212C46.8404 66.3745 46.5495 67.5138 46.3069 68.6298L47.2841 68.8422ZM48.1439 65.4759L51.3839 52.8039L50.4151 52.5561L47.1751 65.2281L48.1439 65.4759ZM51.3835 52.8055C51.7205 51.5057 52.0097 50.3247 52.2511 49.2628L51.2759 49.0412C51.0373 50.0913 50.7505 51.2623 50.4155 52.5545L51.3835 52.8055ZM52.2473 49.2782C52.5414 48.1509 52.6955 47.1698 52.6955 46.344H51.6955C51.6955 47.0542 51.5616 47.9451 51.2797 49.0258L52.2473 49.2782ZM52.6955 46.344C52.6955 45.434 52.4816 44.6585 51.9653 44.111C51.4438 43.5579 50.6963 43.324 49.8195 43.324V44.324C50.5267 44.324 50.9672 44.5101 51.2377 44.797C51.5134 45.0895 51.6955 45.574 51.6955 46.344H52.6955ZM49.8195 43.324C48.5125 43.324 47.0572 43.8548 45.47 44.8391C43.8776 45.8266 42.1132 47.2951 40.1779 49.2304L40.8851 49.9376C42.7898 48.0328 44.4934 46.6214 45.997 45.6889C47.5058 44.7532 48.7745 44.324 49.8195 44.324V43.324ZM40.0428 49.4785L37.8828 59.4865L38.8602 59.6975L41.0202 49.6895L40.0428 49.4785ZM37.8825 59.4878C37.2581 62.4174 36.7057 65.0835 36.2252 67.4859L37.2058 67.6821C37.6853 65.2845 38.2369 62.6226 38.8605 59.6962L37.8825 59.4878ZM36.2237 67.4937C35.7912 69.8486 35.3587 72.3233 34.9263 74.9178L35.9127 75.0822C36.3443 72.4927 36.7758 70.0234 37.2073 67.6743L36.2237 67.4937ZM35.3951 74.5006L26.5391 74.9326L26.5879 75.9314L35.4439 75.4994L35.3951 74.5006ZM66.7339 75.504L66.4471 75.9136L66.5895 76.0133L66.763 76.0032L66.7339 75.504ZM66.0139 75L65.5243 74.8983L65.4574 75.2208L65.7271 75.4096L66.0139 75ZM71.4859 48.648L71.9755 48.7497L71.9769 48.7424L71.4859 48.648ZM71.2699 45.912L70.844 46.174L70.8488 46.1818L70.8539 46.1893L71.2699 45.912ZM69.3259 44.4L69.1144 44.8531L69.1231 44.8571L69.1318 44.8608L69.3259 44.4ZM68.2459 43.896L67.7556 43.7979L67.6786 44.183L68.0344 44.3491L68.2459 43.896ZM68.3899 43.176L68.2392 42.6992L67.9575 42.7883L67.8996 43.0779L68.3899 43.176ZM80.9179 39.216L81.2524 38.8444L81.0398 38.6531L80.7672 38.7392L80.9179 39.216ZM81.6379 39.864L82.1313 39.9447L82.1754 39.6751L81.9724 39.4923L81.6379 39.864ZM79.6939 51.744L79.2004 51.6633L80.152 51.9444L79.6939 51.744ZM87.4699 41.016L87.7679 41.4176L87.776 41.4114L87.4699 41.016ZM95.5339 40.512L95.2005 40.8846L95.2061 40.8896L95.2118 40.8945L95.5339 40.512ZM95.6779 46.92L95.3144 46.5767L95.3092 46.5822L95.3042 46.5878L95.6779 46.92ZM89.4859 47.424L89.2286 47.8527L89.2367 47.8576L89.2449 47.8621L89.4859 47.424ZM86.6779 44.976L87.0563 44.6492L86.7526 44.2976L86.3797 44.5746L86.6779 44.976ZM82.3579 49.872L82.7848 50.1323L82.7875 50.1277L82.3579 49.872ZM79.0459 56.352L78.5863 56.155L78.5675 56.199L78.5573 56.2458L79.0459 56.352ZM78.3259 59.664L77.8373 59.5578L77.8363 59.5624L78.3259 59.664ZM76.8139 67.296L76.3225 67.2033L76.3225 67.2033L76.8139 67.296ZM75.3739 75L75.403 75.4992L75.7942 75.4763L75.8655 75.091L75.3739 75ZM67.0206 75.0944L66.3006 74.5904L65.7271 75.4096L66.4471 75.9136L67.0206 75.0944ZM66.5034 75.1017L71.9754 48.7497L70.9963 48.5463L65.5243 74.8983L66.5034 75.1017ZM71.9769 48.7424C72.223 47.4628 72.1836 46.3813 71.6859 45.6346L70.8539 46.1893C71.1241 46.5947 71.2288 47.3372 70.9949 48.5536L71.9769 48.7424ZM71.6957 45.65C71.2408 44.9108 70.4949 44.3497 69.5199 43.9392L69.1318 44.8608C69.9809 45.2183 70.5309 45.6652 70.844 46.174L71.6957 45.65ZM69.5373 43.9469L68.4573 43.4429L68.0344 44.3491L69.1144 44.8531L69.5373 43.9469ZM68.7362 43.9941L68.8802 43.2741L67.8996 43.0779L67.7556 43.7979L68.7362 43.9941ZM68.5406 43.6527L81.0686 39.6927L80.7672 38.7392L68.2392 42.6992L68.5406 43.6527ZM80.5834 39.5876L81.3034 40.2356L81.9724 39.4923L81.2524 38.8444L80.5834 39.5876ZM81.1444 39.7833L79.2004 51.6633L80.1873 51.8247L82.1313 39.9447L81.1444 39.7833ZM80.152 51.9444C81.1472 49.6697 82.3063 47.6127 83.628 45.7716L82.8157 45.1884C81.4495 47.0913 80.2566 49.2103 79.2358 51.5436L80.152 51.9444ZM83.628 45.7716C84.9489 43.9318 86.33 42.4843 87.7678 41.4175L87.172 40.6144C85.6337 41.7557 84.1828 43.2842 82.8157 45.1884L83.628 45.7716ZM87.776 41.4114C89.1999 40.309 90.5832 39.788 91.9339 39.788V38.788C90.3086 38.788 88.7159 39.419 87.1638 40.6206L87.776 41.4114ZM91.9339 39.788C93.3267 39.788 94.399 40.1675 95.2005 40.8846L95.8673 40.1394C94.8448 39.2245 93.5171 38.788 91.9339 38.788V39.788ZM95.2118 40.8945C96.0003 41.5585 96.4019 42.4449 96.4019 43.608H97.4019C97.4019 42.1791 96.8914 41.0015 95.8559 40.1295L95.2118 40.8945ZM96.4019 43.608C96.4019 44.8424 96.0311 45.8178 95.3144 46.5767L96.0414 47.2633C96.9567 46.2942 97.4019 45.0616 97.4019 43.608H96.4019ZM95.3042 46.5878C94.6468 47.3273 93.7367 47.716 92.5099 47.716V48.716C93.9711 48.716 95.1729 48.2407 96.0516 47.2522L95.3042 46.5878ZM92.5099 47.716C91.5414 47.716 90.6159 47.4749 89.7268 46.9859L89.2449 47.8621C90.2759 48.4291 91.3664 48.716 92.5099 48.716V47.716ZM89.7431 46.9953C88.8383 46.4524 87.9418 45.6745 87.0563 44.6492L86.2995 45.3028C87.238 46.3895 88.2135 47.2436 89.2286 47.8527L89.7431 46.9953ZM86.3797 44.5746C84.6406 45.8665 83.1579 47.5504 81.9282 49.6163L82.7875 50.1277C83.9578 48.1616 85.3551 46.5815 86.976 45.3774L86.3797 44.5746ZM81.931 49.6117C80.7173 51.6021 79.6027 53.7835 78.5863 56.155L79.5054 56.549C80.5051 54.2165 81.5984 52.0779 82.7848 50.1323L81.931 49.6117ZM78.5573 56.2458L77.8373 59.5578L78.8145 59.7702L79.5345 56.4582L78.5573 56.2458ZM77.8363 59.5624C77.3077 62.1093 76.8031 64.6563 76.3225 67.2033L77.3052 67.3887C77.7846 64.8477 78.2881 62.3067 78.8154 59.7656L77.8363 59.5624ZM76.3225 67.2033C75.8424 69.7479 75.3623 72.3164 74.8822 74.909L75.8655 75.091C76.3454 72.4996 76.8253 69.9321 77.3052 67.3887L76.3225 67.2033ZM75.3448 74.5008L66.7048 75.0048L66.763 76.0032L75.403 75.4992L75.3448 74.5008ZM99.3341 74.928L99.6465 74.5376L99.6465 74.5376L99.3341 74.928ZM98.1821 68.448L97.6884 68.369L97.6884 68.369L98.1821 68.448ZM98.8301 64.848L98.3407 64.7458L98.3398 64.7499L98.8301 64.848ZM102.214 48.648L101.726 48.5408L101.725 48.5458L102.214 48.648ZM100.126 44.472L99.9025 44.9192L99.9121 44.924L99.9219 44.9284L100.126 44.472ZM98.9741 43.896L98.4762 43.8507L98.4453 44.1906L98.7505 44.3432L98.9741 43.896ZM99.0461 43.104L98.9081 42.6234L98.5792 42.7179L98.5482 43.0587L99.0461 43.104ZM112.582 39.216L112.917 38.8444L112.711 38.6589L112.444 38.7354L112.582 39.216ZM113.302 39.864L113.791 39.9693L113.852 39.6861L113.637 39.4923L113.302 39.864ZM107.686 65.928L108.174 66.0365L108.175 66.0333L107.686 65.928ZM107.254 68.16L107.747 68.2422L107.748 68.236L107.254 68.16ZM111.142 70.536L111.435 70.9414L111.439 70.9385L111.142 70.536ZM114.526 67.296L114.838 66.9056L114.471 66.6114L114.155 66.9609L114.526 67.296ZM115.246 67.872L115.671 68.1357L115.905 67.7587L115.558 67.4816L115.246 67.872ZM112.078 71.832L111.725 71.4784L111.718 71.4854L112.078 71.832ZM107.974 74.928L108.203 75.3723L108.209 75.3696L107.974 74.928ZM103.006 75.58C101.607 75.58 100.5 75.2206 99.6465 74.5376L99.0218 75.3184C100.088 76.1714 101.429 76.58 103.006 76.58V75.58ZM99.6465 74.5376C98.8302 73.8846 98.3941 72.9155 98.3941 71.544H97.3941C97.3941 73.1485 97.918 74.4354 99.0218 75.3184L99.6465 74.5376ZM98.3941 71.544C98.3941 70.7147 98.4865 69.7105 98.6758 68.527L97.6884 68.369C97.4938 69.5855 97.3941 70.6453 97.3941 71.544H98.3941ZM98.6758 68.527C98.8668 67.3334 99.0817 66.1398 99.3204 64.9461L98.3398 64.7499C98.0986 65.9562 97.8814 67.1626 97.6884 68.369L98.6758 68.527ZM99.3196 64.9502L102.704 48.7502L101.725 48.5458L98.3407 64.7458L99.3196 64.9502ZM102.702 48.7552C102.936 47.6928 102.876 46.7296 102.463 45.9044C102.05 45.0787 101.317 44.4571 100.33 44.0156L99.9219 44.9284C100.759 45.3029 101.286 45.7853 101.569 46.3516C101.852 46.9184 101.925 47.6352 101.726 48.5408L102.702 48.7552ZM100.35 44.0248L99.1977 43.4488L98.7505 44.3432L99.9025 44.9192L100.35 44.0248ZM99.4721 43.9413L99.5441 43.1493L98.5482 43.0587L98.4762 43.8507L99.4721 43.9413ZM99.1842 43.5846L112.72 39.6966L112.444 38.7354L98.9081 42.6234L99.1842 43.5846ZM112.248 39.5876L112.968 40.2356L113.637 39.4923L112.917 38.8444L112.248 39.5876ZM112.813 39.7587L107.197 65.8227L108.175 66.0333L113.791 39.9693L112.813 39.7587ZM107.198 65.8195C107.005 66.6904 106.858 67.4458 106.76 68.084L107.748 68.236C107.842 67.6262 107.984 66.8936 108.174 66.0365L107.198 65.8195ZM106.761 68.0778C106.66 68.6806 106.61 69.2841 106.61 69.888H107.61C107.61 69.3399 107.656 68.7914 107.747 68.2422L106.761 68.0778ZM106.61 69.888C106.61 70.4819 106.744 71.0207 107.1 71.4123C107.464 71.8131 107.98 71.972 108.55 71.972V70.972C108.16 70.972 107.956 70.8669 107.84 70.7397C107.716 70.6033 107.61 70.3501 107.61 69.888H106.61ZM108.55 71.972C109.542 71.972 110.506 71.6123 111.435 70.9413L110.849 70.1307C110.05 70.7077 109.287 70.972 108.55 70.972V71.972ZM111.439 70.9385C112.391 70.237 113.545 69.1282 114.897 67.6311L114.155 66.9609C112.819 68.4398 111.717 69.491 110.846 70.1335L111.439 70.9385ZM114.214 67.6864L114.934 68.2624L115.558 67.4816L114.838 66.9056L114.214 67.6864ZM114.821 67.6083C113.979 68.9653 112.948 70.2555 111.725 71.4784L112.432 72.1856C113.705 70.9125 114.785 69.5627 115.671 68.1357L114.821 67.6083ZM111.718 71.4854C110.555 72.6951 109.229 73.6951 107.74 74.4864L108.209 75.3696C109.791 74.5289 111.202 73.4649 112.439 72.1786L111.718 71.4854ZM107.745 74.4837C106.334 75.2119 104.758 75.58 103.006 75.58V76.58C104.903 76.58 106.638 76.1801 108.203 75.3723L107.745 74.4837ZM105.897 90.912L105.653 91.3485L105.653 91.3485L105.897 90.912ZM104.673 84.144L104.356 83.758L104.356 83.758L104.673 84.144ZM110.649 84L110.916 83.5771L110.907 83.5713L110.649 84ZM113.097 87.024L113.562 86.8383L113.554 86.819L113.545 86.8004L113.097 87.024ZM113.817 88.824L113.353 89.0097L113.364 89.0373L113.378 89.0634L113.817 88.824ZM114.825 89.688L114.947 89.2029L114.917 89.1956L114.887 89.1919L114.825 89.688ZM115.905 88.968L116.337 89.22L116.342 89.2108L115.905 88.968ZM116.553 87.456L116.083 87.2851L116.079 87.2979L116.553 87.456ZM117.273 85.44L116.811 85.2496L116.806 85.2615L116.802 85.2736L117.273 85.44ZM119.001 79.464L118.514 79.3523L118.511 79.364L119.001 79.464ZM120.441 71.76L119.948 71.6794L119.947 71.6846L120.441 71.76ZM124.905 41.664L125.401 41.7335L125.48 41.164H124.905V41.664ZM119.073 41.664L118.585 41.5555L118.45 42.164H119.073V41.664ZM119.217 41.016L119.166 40.5186L118.808 40.5554L118.729 40.9075L119.217 41.016ZM122.025 40.728L122.076 41.2255L122.087 41.2241L122.025 40.728ZM124.617 39.576L124.985 39.9151L124.985 39.9151L124.617 39.576ZM125.985 36.84L125.508 36.6917L125.504 36.7052L125.985 36.84ZM148.737 25.392L148.448 25.7998L148.457 25.806L148.737 25.392ZM149.745 32.376L150.088 32.7401L150.088 32.7401L149.745 32.376ZM141.177 28.992L140.692 29.1133L140.705 29.1649L140.729 29.2127L141.177 28.992ZM140.889 27.84L141.374 27.7187L141.365 27.6799L141.349 27.643L140.889 27.84ZM139.377 26.4V26.9H139.398L139.419 26.8983L139.377 26.4ZM138.009 27.48L138.417 27.769L138.436 27.7432L138.451 27.7153L138.009 27.48ZM135.777 32.304L135.302 32.1492L135.302 32.1492L135.777 32.304ZM133.977 40.368L133.484 40.2893L133.391 40.868H133.977V40.368ZM142.761 40.368L143.248 40.4838L143.394 39.868H142.761V40.368ZM142.401 41.88L142.397 42.38L142.796 42.3833L142.888 41.9958L142.401 41.88ZM133.761 41.808L133.766 41.308L133.332 41.3044L133.267 41.7334L133.761 41.808ZM131.457 57.144L130.963 57.0701L130.962 57.0739L131.457 57.144ZM129.081 71.832L129.573 71.9249L129.573 71.9223L129.081 71.832ZM126.417 81.048L125.957 80.852L125.953 80.8623L126.417 81.048ZM122.097 87.744L121.744 87.3904L121.744 87.3904L122.097 87.744ZM117.057 91.128L116.868 90.6654L116.863 90.6672L117.057 91.128ZM111.369 91.78C109.432 91.78 107.693 91.3426 106.141 90.4755L105.653 91.3485C107.366 92.3054 109.275 92.78 111.369 92.78V91.78ZM106.141 90.4755C104.646 89.6398 103.949 88.4993 103.949 87.024H102.949C102.949 88.9087 103.885 90.3602 105.653 91.3485L106.141 90.4755ZM103.949 87.024C103.949 85.8954 104.312 85.0894 104.991 84.53L104.356 83.758C103.403 84.5426 102.949 85.6566 102.949 87.024H103.949ZM104.991 84.53C105.713 83.9352 106.56 83.636 107.553 83.636V82.636C106.339 82.636 105.265 83.0088 104.356 83.758L104.991 84.53ZM107.553 83.636C108.565 83.636 109.509 83.8987 110.392 84.4287L110.907 83.5713C109.87 82.9493 108.749 82.636 107.553 82.636V83.636ZM110.382 84.4227C111.188 84.9317 111.952 85.8518 112.65 87.2476L113.545 86.8004C112.803 85.3162 111.934 84.2203 110.916 83.5773L110.382 84.4227ZM112.633 87.2097L113.353 89.0097L114.282 88.6383L113.562 86.8383L112.633 87.2097ZM113.378 89.0634C113.7 89.6521 114.146 90.107 114.763 90.1841L114.887 89.1919C114.736 89.173 114.511 89.0519 114.256 88.5846L113.378 89.0634ZM114.704 90.1731C115.046 90.2586 115.376 90.186 115.661 89.996C115.929 89.8171 116.15 89.5415 116.337 89.2199L115.473 88.7161C115.325 88.9705 115.198 89.1029 115.106 89.164C115.031 89.214 114.988 89.2134 114.947 89.2029L114.704 90.1731ZM116.342 89.2108C116.6 88.7465 116.828 88.2131 117.028 87.6141L116.079 87.2979C115.895 87.8509 115.69 88.3255 115.468 88.7252L116.342 89.2108ZM117.023 87.6269C117.216 87.0968 117.457 86.4232 117.745 85.6064L116.802 85.2736C116.514 86.0888 116.275 86.7592 116.083 87.2851L117.023 87.6269ZM117.736 85.6304C118.423 83.9609 119.007 81.9367 119.491 79.564L118.511 79.364C118.036 81.6953 117.468 83.6551 116.811 85.2496L117.736 85.6304ZM119.489 79.5757C120.02 77.2575 120.502 74.6771 120.936 71.8354L119.947 71.6846C119.517 74.5069 119.039 77.0625 118.514 79.3523L119.489 79.5757ZM120.935 71.8406C121.703 67.1336 122.448 62.3068 123.168 57.3601L122.179 57.2159C121.459 62.1572 120.715 66.9784 119.948 71.6794L120.935 71.8406ZM123.168 57.3601C123.888 52.4151 124.632 47.2063 125.401 41.7335L124.41 41.5945C123.642 47.0657 122.898 52.2729 122.179 57.2159L123.168 57.3601ZM124.905 41.164H119.073V42.164H124.905V41.164ZM119.561 41.7725L119.705 41.1245L118.729 40.9075L118.585 41.5555L119.561 41.7725ZM119.268 41.5134L122.076 41.2254L121.974 40.2306L119.166 40.5186L119.268 41.5134ZM122.087 41.2241C123.314 41.0709 124.304 40.6531 124.985 39.9151L124.25 39.2369C123.779 39.7469 123.041 40.0971 121.963 40.2319L122.087 41.2241ZM124.985 39.9151C125.634 39.2122 126.119 38.2181 126.467 36.9748L125.504 36.7052C125.18 37.8619 124.753 38.6918 124.25 39.2369L124.985 39.9151ZM126.463 36.9882C127.735 32.89 129.772 29.7675 132.558 27.5856L131.941 26.7984C128.966 29.1285 126.828 32.438 125.508 36.6918L126.463 36.9882ZM132.558 27.5856C135.336 25.4089 138.775 24.308 142.905 24.308V23.308C138.588 23.308 134.922 24.4631 131.941 26.7984L132.558 27.5856ZM142.905 24.308C145.234 24.308 147.068 24.8201 148.448 25.7998L149.027 24.9842C147.431 23.8519 145.377 23.308 142.905 23.308V24.308ZM148.457 25.806C149.829 26.7355 150.469 27.8863 150.469 29.28H151.469C151.469 27.5057 150.622 26.0645 149.018 24.978L148.457 25.806ZM150.469 29.28C150.469 30.4617 150.102 31.3534 149.403 32.0119L150.088 32.7401C151.02 31.8626 151.469 30.6903 151.469 29.28H150.469ZM149.403 32.0119C148.682 32.6899 147.822 33.028 146.793 33.028V34.028C148.069 34.028 149.176 33.5981 150.088 32.7401L149.403 32.0119ZM146.793 33.028C144.815 33.028 143.076 31.719 141.626 28.7712L140.729 29.2127C142.254 32.313 144.26 34.028 146.793 34.028V33.028ZM141.662 28.8707L141.374 27.7187L140.404 27.9613L140.692 29.1133L141.662 28.8707ZM141.349 27.643C141.12 27.1087 140.853 26.6677 140.532 26.3619C140.2 26.0453 139.795 25.8635 139.336 25.9017L139.419 26.8983C139.536 26.8885 139.671 26.9226 139.843 27.0861C140.025 27.2603 140.227 27.5633 140.43 28.037L141.349 27.643ZM139.377 25.9C138.576 25.9 137.987 26.4586 137.568 27.2447L138.451 27.7153C138.799 27.0614 139.123 26.9 139.377 26.9V25.9ZM137.601 27.191C136.745 28.3999 135.982 30.0601 135.302 32.1492L136.253 32.4588C136.917 30.4199 137.642 28.8641 138.417 27.769L137.601 27.191ZM135.302 32.1492C134.619 34.2476 134.014 36.9638 133.484 40.2893L134.471 40.4467C134.997 37.1482 135.592 34.4884 136.253 32.4588L135.302 32.1492ZM133.977 40.868H142.761V39.868H133.977V40.868ZM142.275 40.2522L141.915 41.7642L142.888 41.9958L143.248 40.4838L142.275 40.2522ZM142.406 41.38L133.766 41.308L133.757 42.308L142.397 42.38L142.406 41.38ZM133.267 41.7334C132.499 46.8216 131.731 51.9338 130.963 57.0701L131.952 57.2179C132.72 52.0822 133.488 46.9704 134.256 41.8826L133.267 41.7334ZM130.962 57.0739C130.243 62.1557 129.452 67.0449 128.59 71.7417L129.573 71.9223C130.438 67.2111 131.232 62.3083 131.952 57.2141L130.962 57.0739ZM128.59 71.7391C127.923 75.2651 127.044 78.3009 125.957 80.8521L126.877 81.2439C127.999 78.6111 128.896 75.5029 129.573 71.9249L128.59 71.7391ZM125.953 80.8623C124.92 83.4459 123.515 85.619 121.744 87.3904L122.451 88.0976C124.327 86.221 125.803 83.9301 126.882 81.2337L125.953 80.8623ZM121.744 87.3904C120.301 88.8335 118.676 89.9236 116.868 90.6654L117.247 91.5906C119.183 90.7964 120.918 89.6305 122.451 88.0976L121.744 87.3904ZM116.863 90.6672C115.1 91.4095 113.27 91.78 111.369 91.78V92.78C113.404 92.78 115.366 92.3825 117.251 91.5888L116.863 90.6672ZM145.14 74.928L144.816 75.309L144.826 75.3176L144.837 75.3257L145.14 74.928ZM143.988 68.304L144.48 68.3897L144.481 68.3862L143.988 68.304ZM144.636 64.632L144.147 64.5253L144.145 64.5331L144.144 64.541L144.636 64.632ZM149.604 41.88L150.092 41.9867L150.225 41.38H149.604V41.88ZM143.628 41.88L143.143 41.7587L142.987 42.38H143.628V41.88ZM143.844 41.016L143.788 40.5191L143.443 40.5574L143.359 40.8947L143.844 41.016ZM146.436 40.728L146.382 40.2308L146.38 40.2311L146.436 40.728ZM149.964 39.72L150.196 40.1629L150.196 40.1629L149.964 39.72ZM152.844 37.488L152.488 37.1362L152.481 37.1436L152.844 37.488ZM159.756 30.504V30.004H159.547L159.4 30.1523L159.756 30.504ZM160.836 30.504L161.325 30.6041L161.448 30.004H160.836V30.504ZM158.82 40.368L158.33 40.2679L158.207 40.868H158.82V40.368ZM166.668 40.368L167.154 40.4838L167.301 39.868H166.668V40.368ZM166.308 41.88V42.38H166.703L166.794 41.9958L166.308 41.88ZM158.46 41.88V41.38H158.053L157.97 41.7786L158.46 41.88ZM153.492 65.856L153.981 65.959L153.981 65.9574L153.492 65.856ZM153.06 68.232L153.554 68.308L153.555 68.3027L153.06 68.232ZM153.348 70.968L153.701 70.6144L153.701 70.6144L153.348 70.968ZM156.444 70.608L156.727 71.02L156.735 71.0142L156.744 71.008L156.444 70.608ZM159.324 68.088L159.644 67.7039L159.3 67.4178L158.978 67.727L159.324 68.088ZM160.188 68.808L160.602 69.0879L160.855 68.7133L160.508 68.4239L160.188 68.808ZM148.884 75.58C147.485 75.58 146.349 75.2209 145.443 74.5303L144.837 75.3257C145.946 76.1711 147.306 76.58 148.884 76.58V75.58ZM145.463 74.547C144.639 73.8467 144.2 72.8245 144.2 71.4H143.2C143.2 73.0475 143.72 74.3773 144.816 75.309L145.463 74.547ZM144.2 71.4C144.2 70.473 144.292 69.4699 144.48 68.3897L143.495 68.2183C143.299 69.3461 143.2 70.407 143.2 71.4H144.2ZM144.481 68.3862C144.672 67.2375 144.888 66.0165 145.127 64.723L144.144 64.541C143.904 65.8395 143.687 67.0665 143.494 68.2218L144.481 68.3862ZM145.124 64.7387L150.092 41.9867L149.115 41.7733L144.147 64.5253L145.124 64.7387ZM149.604 41.38H143.628V42.38H149.604V41.38ZM144.113 42.0013L144.329 41.1373L143.359 40.8947L143.143 41.7587L144.113 42.0013ZM143.899 41.5129L146.491 41.2249L146.38 40.2311L143.788 40.5191L143.899 41.5129ZM146.489 41.2252C147.884 41.0757 149.123 40.725 150.196 40.1629L149.732 39.2771C148.789 39.771 147.675 40.0923 146.382 40.2308L146.489 41.2252ZM150.196 40.1629C151.259 39.6057 152.262 38.8258 153.206 37.8324L152.481 37.1436C151.601 38.0702 150.684 38.7783 149.732 39.2771L150.196 40.1629ZM153.199 37.8397L160.111 30.8557L159.4 30.1523L152.488 37.1363L153.199 37.8397ZM159.756 31.004H160.836V30.004H159.756V31.004ZM160.346 30.4039L158.33 40.2679L159.309 40.4681L161.325 30.6041L160.346 30.4039ZM158.82 40.868H166.668V39.868H158.82V40.868ZM166.181 40.2522L165.821 41.7642L166.794 41.9958L167.154 40.4838L166.181 40.2522ZM166.308 41.38H158.46V42.38H166.308V41.38ZM157.97 41.7786L153.002 65.7546L153.981 65.9574L158.949 41.9814L157.97 41.7786ZM153.002 65.753C152.809 66.6721 152.663 67.4753 152.565 68.1613L153.555 68.3027C153.649 67.6447 153.79 66.8639 153.981 65.959L153.002 65.753ZM152.565 68.156C152.467 68.7948 152.416 69.3499 152.416 69.816H153.416C153.416 69.4181 153.46 68.9172 153.554 68.308L152.565 68.156ZM152.416 69.816C152.416 70.4031 152.596 70.9232 152.994 71.3216L153.701 70.6144C153.524 70.4368 153.416 70.1889 153.416 69.816H152.416ZM152.994 71.3216C153.355 71.6821 153.788 71.9 154.284 71.9V70.9C154.108 70.9 153.917 70.8299 153.701 70.6144L152.994 71.3216ZM154.284 71.9C155.089 71.9 155.907 71.5838 156.727 71.02L156.16 70.196C155.444 70.6882 154.822 70.9 154.284 70.9V71.9ZM156.744 71.008C157.535 70.4147 158.511 69.5591 159.67 68.449L158.978 67.727C157.832 68.8249 156.889 69.6493 156.144 70.208L156.744 71.008ZM159.004 68.4721L159.868 69.1921L160.508 68.4239L159.644 67.7039L159.004 68.4721ZM159.773 68.5281C158.605 70.2567 157.082 71.8765 155.195 73.3856L155.82 74.1664C157.774 72.6035 159.37 70.9113 160.602 69.0879L159.773 68.5281ZM155.195 73.3856C153.365 74.8495 151.268 75.58 148.884 75.58V76.58C151.491 76.58 153.81 75.7745 155.82 74.1664L155.195 73.3856ZM168.522 74.928L168.834 74.5376L168.834 74.5376L168.522 74.928ZM167.37 68.448L166.876 68.369L166.876 68.369L167.37 68.448ZM168.018 64.848L167.528 64.7458L167.527 64.7499L168.018 64.848ZM171.402 48.648L170.913 48.5408L170.912 48.5458L171.402 48.648ZM169.314 44.472L169.09 44.9192L169.1 44.924L169.109 44.9284L169.314 44.472ZM168.162 43.896L167.664 43.8507L167.633 44.1906L167.938 44.3432L168.162 43.896ZM168.234 43.104L168.096 42.6234L167.767 42.7179L167.736 43.0587L168.234 43.104ZM181.77 39.216L182.104 38.8444L181.898 38.6589L181.632 38.7354L181.77 39.216ZM182.49 39.864L182.978 39.9693L183.039 39.6861L182.824 39.4923L182.49 39.864ZM176.874 65.928L177.362 66.0365L177.362 66.0333L176.874 65.928ZM176.442 68.16L176.935 68.2422L176.936 68.236L176.442 68.16ZM180.33 70.536L180.622 70.9414L180.626 70.9385L180.33 70.536ZM183.714 67.296L184.026 66.9056L183.658 66.6114L183.343 66.9609L183.714 67.296ZM184.434 67.872L184.858 68.1357L185.092 67.7587L184.746 67.4816L184.434 67.872ZM181.266 71.832L180.912 71.4784L180.905 71.4854L181.266 71.832ZM177.162 74.928L177.391 75.3723L177.396 75.3696L177.162 74.928ZM172.194 75.58C170.794 75.58 169.688 75.2206 168.834 74.5376L168.209 75.3184C169.275 76.1714 170.617 76.58 172.194 76.58V75.58ZM168.834 74.5376C168.018 73.8846 167.582 72.9155 167.582 71.544H166.582C166.582 73.1485 167.106 74.4354 168.209 75.3184L168.834 74.5376ZM167.582 71.544C167.582 70.7147 167.674 69.7105 167.863 68.527L166.876 68.369C166.681 69.5855 166.582 70.6453 166.582 71.544H167.582ZM167.863 68.527C168.054 67.3334 168.269 66.1398 168.508 64.9461L167.527 64.7499C167.286 65.9562 167.069 67.1626 166.876 68.369L167.863 68.527ZM168.507 64.9502L171.891 48.7502L170.912 48.5458L167.528 64.7458L168.507 64.9502ZM171.89 48.7552C172.123 47.6928 172.063 46.7296 171.651 45.9044C171.238 45.0787 170.505 44.4571 169.518 44.0156L169.109 44.9284C169.946 45.3029 170.473 45.7853 170.756 46.3516C171.04 46.9184 171.112 47.6352 170.913 48.5408L171.89 48.7552ZM169.537 44.0248L168.385 43.4488L167.938 44.3432L169.09 44.9192L169.537 44.0248ZM168.66 43.9413L168.732 43.1493L167.736 43.0587L167.664 43.8507L168.66 43.9413ZM168.372 43.5846L181.908 39.6966L181.632 38.7354L168.096 42.6234L168.372 43.5846ZM181.435 39.5876L182.155 40.2356L182.824 39.4923L182.104 38.8444L181.435 39.5876ZM182.001 39.7587L176.385 65.8227L177.362 66.0333L182.978 39.9693L182.001 39.7587ZM176.386 65.8195C176.192 66.6904 176.046 67.4458 175.947 68.084L176.936 68.236C177.03 67.6262 177.171 66.8936 177.362 66.0365L176.386 65.8195ZM175.948 68.0778C175.848 68.6806 175.798 69.2841 175.798 69.888H176.798C176.798 69.3399 176.843 68.7914 176.935 68.2422L175.948 68.0778ZM175.798 69.888C175.798 70.4819 175.932 71.0207 176.288 71.4123C176.652 71.8131 177.168 71.972 177.738 71.972V70.972C177.348 70.972 177.143 70.8669 177.028 70.7397C176.904 70.6033 176.798 70.3501 176.798 69.888H175.798ZM177.738 71.972C178.729 71.972 179.693 71.6123 180.622 70.9413L180.037 70.1307C179.238 70.7077 178.474 70.972 177.738 70.972V71.972ZM180.626 70.9385C181.578 70.237 182.733 69.1282 184.085 67.6311L183.343 66.9609C182.007 68.4398 180.905 69.491 180.033 70.1335L180.626 70.9385ZM183.401 67.6864L184.121 68.2624L184.746 67.4816L184.026 66.9056L183.401 67.6864ZM184.009 67.6083C183.167 68.9653 182.135 70.2555 180.912 71.4784L181.619 72.1856C182.892 70.9125 183.973 69.5627 184.858 68.1357L184.009 67.6083ZM180.905 71.4854C179.742 72.6951 178.417 73.6951 176.927 74.4864L177.396 75.3696C178.979 74.5289 180.389 73.4649 181.626 72.1786L180.905 71.4854ZM176.932 74.4837C175.521 75.2119 173.945 75.58 172.194 75.58V76.58C174.09 76.58 175.826 76.1801 177.391 75.3723L176.932 74.4837ZM187.037 75.504L186.73 75.8987L186.878 76.014L187.066 76.0032L187.037 75.504ZM186.389 75L185.899 74.8976L185.836 75.2031L186.082 75.3947L186.389 75ZM191.933 48.504L191.446 48.3915L191.443 48.4016L191.933 48.504ZM189.917 44.472L189.704 44.9244L189.708 44.9263L189.917 44.472ZM188.693 43.896L188.195 43.8462L188.16 44.1979L188.48 44.3484L188.693 43.896ZM188.765 43.176L188.623 42.6965L188.301 42.7918L188.267 43.1262L188.765 43.176ZM202.157 39.216L202.489 38.8423L202.281 38.6578L202.015 38.7365L202.157 39.216ZM202.805 39.792L203.296 39.8854L203.349 39.6067L203.137 39.4183L202.805 39.792ZM201.149 48.504L200.658 48.4106L200.317 50.2044L201.524 48.8346L201.149 48.504ZM208.781 41.808L209.047 42.2312L209.053 42.2276L208.781 41.808ZM219.941 40.728L219.596 41.0902L219.605 41.0988L219.941 40.728ZM221.165 48.216L221.657 48.3054L221.657 48.3017L221.165 48.216ZM220.445 51.528L219.96 51.4067L219.96 51.4073L220.445 51.528ZM216.629 66.864L217.114 66.9853L217.114 66.9847L216.629 66.864ZM216.197 68.808L216.687 68.9061L216.689 68.8974L216.197 68.808ZM222.389 68.376L222.742 68.0224L222.381 67.6608L222.027 68.0306L222.389 68.376ZM223.109 69.096L223.523 69.3759L223.754 69.0341L223.462 68.7424L223.109 69.096ZM208.133 75L207.801 75.3737L207.807 75.379L207.813 75.3841L208.133 75ZM207.197 68.736L207.684 68.8468L207.685 68.8422L207.197 68.736ZM207.989 65.352L208.474 65.4733L208.474 65.4733L207.989 65.352ZM210.797 54.12L211.282 54.2413L211.282 54.2413L210.797 54.12ZM211.733 50.016L212.223 50.1141L212.223 50.1141L211.733 50.016ZM211.517 44.904L211.163 45.2576L211.175 45.2693L211.188 45.2803L211.517 44.904ZM205.829 45.84L205.56 45.4181L205.555 45.422L205.829 45.84ZM200.717 50.592L200.339 50.2645L200.256 50.3601L200.229 50.4835L200.717 50.592ZM198.701 59.664L198.213 59.5555L198.211 59.5624L198.701 59.664ZM197.189 67.296L196.698 67.2033L196.698 67.2033L197.189 67.296ZM195.749 75L195.778 75.4992L196.169 75.4765L196.241 75.091L195.749 75ZM187.344 75.1093L186.696 74.6053L186.082 75.3947L186.73 75.8987L187.344 75.1093ZM186.878 75.1024L192.422 48.6064L191.443 48.4016L185.899 74.8976L186.878 75.1024ZM192.42 48.6164C192.655 47.5993 192.601 46.6705 192.2 45.8684C191.8 45.0674 191.086 44.4587 190.126 44.0177L189.708 44.9263C190.524 45.3012 191.034 45.7726 191.306 46.3156C191.577 46.8575 191.643 47.5367 191.446 48.3916L192.42 48.6164ZM190.13 44.0196L188.906 43.4436L188.48 44.3484L189.704 44.9244L190.13 44.0196ZM189.19 43.9458L189.262 43.2257L188.267 43.1262L188.195 43.8462L189.19 43.9458ZM188.907 43.6555L202.299 39.6955L202.015 38.7365L188.623 42.6965L188.907 43.6555ZM201.825 39.5897L202.473 40.1657L203.137 39.4183L202.489 38.8423L201.825 39.5897ZM202.314 39.6986L200.658 48.4106L201.64 48.5974L203.296 39.8854L202.314 39.6986ZM201.524 48.8346C203.995 46.0305 206.504 43.8325 209.047 42.2311L208.514 41.3849C205.874 43.0475 203.294 45.3135 200.774 48.1734L201.524 48.8346ZM209.053 42.2276C211.591 40.5826 213.945 39.788 216.125 39.788V38.788C213.697 38.788 211.155 39.6734 208.509 41.3884L209.053 42.2276ZM216.125 39.788C217.547 39.788 218.691 40.2281 219.596 41.0901L220.286 40.3659C219.175 39.3079 217.775 38.788 216.125 38.788V39.788ZM219.605 41.0988C220.469 41.88 220.953 43.1569 220.953 45.048H221.953C221.953 43.0031 221.429 41.4 220.276 40.3572L219.605 41.0988ZM220.953 45.048C220.953 46.0243 220.86 47.0515 220.672 48.1303L221.657 48.3017C221.854 47.1725 221.953 46.0877 221.953 45.048H220.953ZM220.673 48.1266C220.483 49.1708 220.245 50.2642 219.96 51.4067L220.93 51.6493C221.22 50.4878 221.463 49.3732 221.657 48.3054L220.673 48.1266ZM219.96 51.4073L216.144 66.7433L217.114 66.9847L220.93 51.6487L219.96 51.4073ZM216.144 66.7427C215.95 67.5168 215.804 68.1762 215.705 68.7186L216.689 68.8974C216.782 68.3838 216.923 67.7472 217.114 66.9853L216.144 66.7427ZM215.707 68.7099C215.606 69.2139 215.553 69.6795 215.553 70.104H216.553C216.553 69.7605 216.596 69.3621 216.687 68.9061L215.707 68.7099ZM215.553 70.104C215.553 70.6625 215.664 71.174 215.97 71.5526C216.293 71.9514 216.761 72.116 217.277 72.116V71.116C216.977 71.116 216.833 71.0286 216.747 70.9234C216.646 70.798 216.553 70.5535 216.553 70.104H215.553ZM217.277 72.116C218.08 72.116 218.936 71.7953 219.831 71.2283C220.729 70.6589 221.702 69.8182 222.75 68.7214L222.027 68.0306C221.011 69.0938 220.101 69.8731 219.295 70.3837C218.486 70.8967 217.818 71.116 217.277 71.116V72.116ZM222.035 68.7296L222.755 69.4496L223.462 68.7424L222.742 68.0224L222.035 68.7296ZM222.695 68.8161C221.531 70.5382 219.989 72.1059 218.062 73.5165L218.652 74.3235C220.66 72.8541 222.287 71.2058 223.523 69.3759L222.695 68.8161ZM218.062 73.5165C216.178 74.8949 214.097 75.58 211.805 75.58V76.58C214.313 76.58 216.6 75.8251 218.652 74.3235L218.062 73.5165ZM211.805 75.58C210.291 75.58 209.197 75.2355 208.453 74.6159L207.813 75.3841C208.797 76.2045 210.151 76.58 211.805 76.58V75.58ZM208.465 74.6263C207.726 73.969 207.337 73.0588 207.337 71.832H206.337C206.337 73.2932 206.812 74.495 207.801 75.3737L208.465 74.6263ZM207.337 71.832C207.337 70.8639 207.452 69.8691 207.684 68.8468L206.709 68.6252C206.462 69.7149 206.337 70.7841 206.337 71.832H207.337ZM207.685 68.8422C207.924 67.7435 208.187 66.6205 208.474 65.4733L207.504 65.2307C207.215 66.3875 206.949 67.5205 206.708 68.6298L207.685 68.8422ZM208.474 65.4733L211.282 54.2413L210.312 53.9987L207.504 65.2307L208.474 65.4733ZM211.282 54.2413C211.667 52.6997 211.981 51.3237 212.223 50.1141L211.243 49.9179C211.005 51.1083 210.694 52.4683 210.312 53.9987L211.282 54.2413ZM212.223 50.1141C212.468 48.8884 212.593 47.751 212.593 46.704H211.593C211.593 47.673 211.477 48.7436 211.243 49.9179L212.223 50.1141ZM212.593 46.704C212.593 45.7916 212.394 45.0074 211.846 44.5277L211.188 45.2803C211.407 45.4726 211.593 45.8883 211.593 46.704H212.593ZM211.87 44.5504C211.371 44.0515 210.704 43.828 209.933 43.828V44.828C210.506 44.828 210.894 44.9885 211.163 45.2576L211.87 44.5504ZM209.933 43.828C208.643 43.828 207.179 44.3882 205.56 45.4182L206.097 46.2618C207.647 45.2758 208.918 44.828 209.933 44.828V43.828ZM205.555 45.422C203.965 46.4652 202.226 48.0867 200.339 50.2645L201.095 50.9195C202.951 48.7773 204.621 47.2308 206.103 46.258L205.555 45.422ZM200.229 50.4835L198.213 59.5555L199.189 59.7725L201.205 50.7005L200.229 50.4835ZM198.211 59.5624C197.683 62.1093 197.178 64.6563 196.698 67.2033L197.68 67.3887C198.16 64.8477 198.663 62.3067 199.19 59.7656L198.211 59.5624ZM196.698 67.2033C196.217 69.7479 195.737 72.3164 195.257 74.909L196.241 75.091C196.72 72.4996 197.2 69.9321 197.68 67.3887L196.698 67.2033ZM195.72 74.5008L187.008 75.0048L187.066 76.0032L195.778 75.4992L195.72 74.5008Z" fill="#172554" mask="url(#path-1-outside-1_11_15)"/>
<path d="M109 17.809L111.007 23.9871L111.064 24.1598H111.245H117.741L112.486 27.9781L112.339 28.0848L112.395 28.2576L114.402 34.4357L109.147 30.6174L109 30.5106L108.853 30.6174L103.598 34.4357L105.605 28.2576L105.661 28.0848L105.514 27.9781L100.259 24.1598H106.755H106.936L106.993 23.9871L109 17.809Z" fill="#172554" stroke="#172554" stroke-width="0.5"/>
<path d="M179 17.809L181.007 23.9871L181.064 24.1598H181.245H187.741L182.486 27.9781L182.339 28.0848L182.395 28.2576L184.402 34.4357L179.147 30.6174L179 30.5106L178.853 30.6174L173.598 34.4357L175.605 28.2576L175.661 28.0848L175.514 27.9781L170.259 24.1598H176.755H176.936L176.993 23.9871L179 17.809Z" fill="#172554" stroke="#172554" stroke-width="0.5"/>
</svg>
