<svg width="25" height="48" viewBox="0 0 25 48" fill="none" xmlns="http://www.w3.org/2000/svg">
<g filter="url(#filter0_if_7_10)">
<path d="M6.256 46.576C4.768 46.576 3.52 46.192 2.512 45.424C1.552 44.608 1.072 43.432 1.072 41.896C1.072 40.936 1.168 39.904 1.36 38.8C1.552 37.648 1.768 36.424 2.008 35.128L6.976 12.376H1L1.216 11.512L3.808 11.224C5.152 11.08 6.328 10.744 7.336 10.216C8.344 9.688 9.304 8.944 10.216 7.984L17.128 1H18.208L16.192 10.864H24.04L23.68 12.376H15.832L10.864 36.352C10.672 37.264 10.528 38.056 10.432 38.728C10.336 39.352 10.288 39.88 10.288 40.312C10.288 40.792 10.432 41.176 10.72 41.464C11.008 41.752 11.32 41.896 11.656 41.896C12.328 41.896 13.048 41.632 13.816 41.104C14.584 40.528 15.544 39.688 16.696 38.584L17.56 39.304C16.36 41.08 14.8 42.736 12.88 44.272C10.96 45.808 8.752 46.576 6.256 46.576Z" fill="url(#paint0_radial_7_10)"/>
</g>
<defs>
<filter id="filter0_if_7_10" x="0.5" y="0.5" width="24.04" height="46.576" filterUnits="userSpaceOnUse" color-interpolation-filters="sRGB">
<feFlood flood-opacity="0" result="BackgroundImageFix"/>
<feBlend mode="normal" in="SourceGraphic" in2="BackgroundImageFix" result="shape"/>
<feColorMatrix in="SourceAlpha" type="matrix" values="0 0 0 0 0 0 0 0 0 0 0 0 0 0 0 0 0 0 127 0" result="hardAlpha"/>
<feOffset/>
<feGaussianBlur stdDeviation="2.5"/>
<feComposite in2="hardAlpha" operator="arithmetic" k2="-1" k3="1"/>
<feColorMatrix type="matrix" values="0 0 0 0 0.0901961 0 0 0 0 0.145098 0 0 0 0 0.329412 0 0 0 1 0"/>
<feBlend mode="normal" in2="shape" result="effect1_innerShadow_7_10"/>
<feGaussianBlur stdDeviation="0.25" result="effect2_foregroundBlur_7_10"/>
</filter>
<radialGradient id="paint0_radial_7_10" cx="0" cy="0" r="1" gradientUnits="userSpaceOnUse" gradientTransform="translate(13 23.496) scale(109.5 34.4157)">
<stop stop-color="#172554"/>
<stop offset="1" stop-color="#172554" stop-opacity="0.25"/>
</radialGradient>
</defs>
</svg>
