<svg width="219" height="70" viewBox="0 0 219 70" fill="none" xmlns="http://www.w3.org/2000/svg">
<path d="M5.368 53.08C3.88 53.08 2.632 52.696 1.624 51.928C0.664 51.112 0.184 49.936 0.184 48.4C0.184 47.44 0.28 46.408 0.472 45.304C0.664 44.152 0.88 42.928 1.12 41.632L6.088 18.88H0.112L0.328 18.016L2.92 17.728C4.264 17.584 5.44 17.248 6.448 16.72C7.456 16.192 8.416 15.448 9.328 14.488L16.24 7.504H17.32L15.304 17.368H23.152L22.792 18.88H14.944L9.976 42.856C9.784 43.768 9.64 44.56 9.544 45.232C9.448 45.856 9.4 46.384 9.4 46.816C9.4 47.296 9.544 47.68 9.832 47.968C10.12 48.256 10.432 48.4 10.768 48.4C11.44 48.4 12.16 48.136 12.928 47.608C13.696 47.032 14.656 46.192 15.808 45.088L16.672 45.808C15.472 47.584 13.912 49.24 11.992 50.776C10.072 52.312 7.864 53.08 5.368 53.08ZM21.5635 52.432L21.1315 52L27.6835 20.608C28.0675 18.784 28.4035 17.152 28.6915 15.712C28.9795 14.224 29.2915 12.568 29.6275 10.744C30.0115 8.68 29.2195 7.312 27.2515 6.64L26.0995 6.28L26.2435 5.56L39.9955 1.528L40.4995 2.032L35.6035 25C38.0035 22.504 40.5475 20.44 43.2355 18.808C45.9715 17.128 48.4915 16.288 50.7955 16.288C52.3315 16.288 53.5795 16.768 54.5395 17.728C55.5475 18.64 56.0515 20.08 56.0515 22.048C56.0515 23.056 55.9555 24.112 55.7635 25.216C55.5715 26.272 55.3315 27.376 55.0435 28.528L51.4435 43.216C51.2515 44.128 51.0595 44.92 50.8675 45.592C50.6755 46.216 50.5795 46.72 50.5795 47.104C50.5795 48.112 51.0115 48.616 51.8755 48.616C53.1235 48.616 54.8755 47.56 57.1315 45.448L57.7795 46.096C56.6275 47.872 55.0675 49.48 53.0995 50.92C51.1315 52.36 48.8995 53.08 46.4035 53.08C44.8195 53.08 43.5955 52.72 42.7315 52C41.8675 51.232 41.4355 50.176 41.4355 48.832C41.4355 47.824 41.5555 46.792 41.7955 45.736C42.0355 44.632 42.3235 43.504 42.6595 42.352L45.8995 29.68C46.2355 28.384 46.5235 27.208 46.7635 26.152C47.0515 25.048 47.1955 24.112 47.1955 23.344C47.1955 21.664 46.4035 20.824 44.8195 20.824C42.4675 20.824 39.3715 22.744 35.5315 26.584L33.3715 36.592C32.7475 39.52 32.1955 42.184 31.7155 44.584C31.2835 46.936 30.8515 49.408 30.4195 52L21.5635 52.432ZM61.7339 52.504L61.0139 52L66.4859 25.648C66.7259 24.4 66.6539 23.488 66.2699 22.912C65.8859 22.288 65.2379 21.784 64.3259 21.4L63.2459 20.896L63.3899 20.176L75.9179 16.216L76.6379 16.864L74.6939 28.744C75.7019 26.44 76.8779 24.352 78.2219 22.48C79.5659 20.608 80.9819 19.12 82.4699 18.016C83.9579 16.864 85.4459 16.288 86.9339 16.288C88.4219 16.288 89.6219 16.696 90.5339 17.512C91.4459 18.28 91.9019 19.312 91.9019 20.608C91.9019 21.952 91.4939 23.056 90.6779 23.92C89.9099 24.784 88.8539 25.216 87.5099 25.216C86.4539 25.216 85.4459 24.952 84.4859 24.424C83.5259 23.848 82.5899 23.032 81.6779 21.976C79.9979 23.224 78.5579 24.856 77.3579 26.872C76.1579 28.84 75.0539 31 74.0459 33.352L73.3259 36.664C72.7979 39.208 72.2939 41.752 71.8139 44.296C71.3339 46.84 70.8539 49.408 70.3739 52L61.7339 52.504ZM98.0061 53.08C96.5181 53.08 95.2941 52.696 94.3341 51.928C93.3741 51.16 92.8941 50.032 92.8941 48.544C92.8941 47.68 92.9901 46.648 93.1821 45.448C93.3741 44.248 93.5901 43.048 93.8301 41.848L97.2141 25.648C97.6461 23.68 96.9501 22.288 95.1261 21.472L93.9741 20.896L94.0461 20.104L107.582 16.216L108.302 16.864L102.686 42.928C102.494 43.792 102.35 44.536 102.254 45.16C102.158 45.736 102.11 46.312 102.11 46.888C102.11 47.944 102.59 48.472 103.55 48.472C104.414 48.472 105.278 48.16 106.142 47.536C107.054 46.864 108.182 45.784 109.526 44.296L110.246 44.872C109.382 46.264 108.326 47.584 107.078 48.832C105.878 50.08 104.51 51.112 102.974 51.928C101.486 52.696 99.8301 53.08 98.0061 53.08ZM106.369 69.28C104.353 69.28 102.529 68.824 100.897 67.912C99.2654 67 98.4494 65.704 98.4494 64.024C98.4494 62.776 98.8574 61.816 99.6734 61.144C100.489 60.472 101.449 60.136 102.553 60.136C103.657 60.136 104.689 60.424 105.649 61C106.561 61.576 107.377 62.584 108.097 64.024L108.817 65.824C109.105 66.352 109.441 66.64 109.825 66.688C110.209 66.784 110.569 66.544 110.905 65.968C111.145 65.536 111.361 65.032 111.553 64.456C111.745 63.928 111.985 63.256 112.273 62.44C112.945 60.808 113.521 58.816 114.001 56.464C114.529 54.16 115.009 51.592 115.441 48.76C116.209 44.056 116.953 39.232 117.673 34.288C118.393 29.344 119.137 24.136 119.905 18.664H114.073L114.217 18.016L117.025 17.728C118.177 17.584 119.041 17.2 119.617 16.576C120.193 15.952 120.649 15.04 120.985 13.84C122.281 9.664 124.369 6.448 127.249 4.192C130.129 1.936 133.681 0.807998 137.905 0.807998C140.305 0.807998 142.249 1.336 143.737 2.392C145.225 3.4 145.969 4.696 145.969 6.28C145.969 7.576 145.561 8.608 144.745 9.376C143.929 10.144 142.945 10.528 141.793 10.528C139.537 10.528 137.665 9.016 136.177 5.992L135.889 4.84C135.457 3.832 134.953 3.352 134.377 3.4C133.849 3.4 133.393 3.76 133.009 4.48C132.193 5.632 131.449 7.24 130.777 9.304C130.105 11.368 129.505 14.056 128.977 17.368H137.761L137.401 18.88L128.761 18.808C127.993 23.896 127.225 29.008 126.457 34.144C125.737 39.232 124.945 44.128 124.081 48.832C123.409 52.384 122.521 55.456 121.417 58.048C120.361 60.688 118.921 62.92 117.097 64.744C115.609 66.232 113.929 67.36 112.057 68.128C110.233 68.896 108.337 69.28 106.369 69.28ZM143.884 53.08C142.396 53.08 141.148 52.696 140.14 51.928C139.18 51.112 138.7 49.936 138.7 48.4C138.7 47.44 138.796 46.408 138.988 45.304C139.18 44.152 139.396 42.928 139.636 41.632L144.604 18.88H138.628L138.844 18.016L141.436 17.728C142.78 17.584 143.956 17.248 144.964 16.72C145.972 16.192 146.932 15.448 147.844 14.488L154.756 7.504H155.836L153.82 17.368H161.668L161.308 18.88H153.46L148.492 42.856C148.3 43.768 148.156 44.56 148.06 45.232C147.964 45.856 147.916 46.384 147.916 46.816C147.916 47.296 148.06 47.68 148.348 47.968C148.636 48.256 148.948 48.4 149.284 48.4C149.956 48.4 150.676 48.136 151.444 47.608C152.212 47.032 153.172 46.192 154.324 45.088L155.188 45.808C153.988 47.584 152.428 49.24 150.508 50.776C148.588 52.312 146.38 53.08 143.884 53.08ZM167.194 53.08C165.706 53.08 164.482 52.696 163.522 51.928C162.562 51.16 162.082 50.032 162.082 48.544C162.082 47.68 162.178 46.648 162.37 45.448C162.562 44.248 162.778 43.048 163.018 41.848L166.402 25.648C166.834 23.68 166.138 22.288 164.314 21.472L163.162 20.896L163.234 20.104L176.77 16.216L177.49 16.864L171.874 42.928C171.682 43.792 171.538 44.536 171.442 45.16C171.346 45.736 171.298 46.312 171.298 46.888C171.298 47.944 171.778 48.472 172.738 48.472C173.602 48.472 174.466 48.16 175.33 47.536C176.242 46.864 177.37 45.784 178.714 44.296L179.434 44.872C178.57 46.264 177.514 47.584 176.266 48.832C175.066 50.08 173.698 51.112 172.162 51.928C170.674 52.696 169.018 53.08 167.194 53.08ZM182.037 52.504L181.389 52L186.933 25.504C187.365 23.632 186.693 22.288 184.917 21.472L183.693 20.896L183.765 20.176L197.157 16.216L197.805 16.792L196.149 25.504C198.645 22.672 201.189 20.44 203.781 18.808C206.373 17.128 208.821 16.288 211.125 16.288C212.661 16.288 213.933 16.768 214.941 17.728C215.949 18.64 216.453 20.08 216.453 22.048C216.453 23.056 216.357 24.112 216.165 25.216C215.973 26.272 215.733 27.376 215.445 28.528L211.629 43.864C211.437 44.632 211.293 45.28 211.197 45.808C211.101 46.288 211.053 46.72 211.053 47.104C211.053 48.112 211.461 48.616 212.277 48.616C213.621 48.616 215.325 47.536 217.389 45.376L218.109 46.096C216.909 47.872 215.325 49.48 213.357 50.92C211.389 52.36 209.205 53.08 206.805 53.08C205.221 53.08 203.997 52.72 203.133 52C202.269 51.232 201.837 50.176 201.837 48.832C201.837 47.824 201.957 46.792 202.197 45.736C202.437 44.632 202.701 43.504 202.989 42.352L205.797 31.12C206.181 29.584 206.493 28.216 206.733 27.016C206.973 25.816 207.093 24.712 207.093 23.704C207.093 22.84 206.901 22.24 206.517 21.904C206.133 21.52 205.605 21.328 204.933 21.328C203.781 21.328 202.413 21.832 200.829 22.84C199.293 23.848 197.589 25.432 195.717 27.592L193.701 36.664C193.173 39.208 192.669 41.752 192.189 44.296C191.709 46.84 191.229 49.408 190.749 52L182.037 52.504Z" fill="#172554"/>
</svg>
