<svg width="220" height="74" viewBox="0 0 220 74" fill="none" xmlns="http://www.w3.org/2000/svg">
<g filter="url(#filter0_if_7_8)">
<path d="M6.256 57.08C4.768 57.08 3.52 56.696 2.512 55.928C1.552 55.112 1.072 53.936 1.072 52.4C1.072 51.44 1.168 50.408 1.36 49.304C1.552 48.152 1.768 46.928 2.008 45.632L6.976 22.88H1L1.216 22.016L3.808 21.728C5.152 21.584 6.328 21.248 7.336 20.72C8.344 20.192 9.304 19.448 10.216 18.488L17.128 11.504H18.208L16.192 21.368H24.04L23.68 22.88H15.832L10.864 46.856C10.672 47.768 10.528 48.56 10.432 49.232C10.336 49.856 10.288 50.384 10.288 50.816C10.288 51.296 10.432 51.68 10.72 51.968C11.008 52.256 11.32 52.4 11.656 52.4C12.328 52.4 13.048 52.136 13.816 51.608C14.584 51.032 15.544 50.192 16.696 49.088L17.56 49.808C16.36 51.584 14.8 53.24 12.88 54.776C10.96 56.312 8.752 57.08 6.256 57.08Z" fill="url(#paint0_radial_7_8)"/>
<path d="M22.4515 56.432L22.0195 56L28.5715 24.608C28.9555 22.784 29.2915 21.152 29.5795 19.712C29.8675 18.224 30.1795 16.568 30.5155 14.744C30.8995 12.68 30.1075 11.312 28.1395 10.64L26.9875 10.28L27.1315 9.55998L40.8835 5.52798L41.3875 6.03198L36.4915 29C38.8915 26.504 41.4355 24.44 44.1235 22.808C46.8595 21.128 49.3795 20.288 51.6835 20.288C53.2195 20.288 54.4675 20.768 55.4275 21.728C56.4355 22.64 56.9395 24.08 56.9395 26.048C56.9395 27.056 56.8435 28.112 56.6515 29.216C56.4595 30.272 56.2195 31.376 55.9315 32.528L52.3315 47.216C52.1395 48.128 51.9475 48.92 51.7555 49.592C51.5635 50.216 51.4675 50.72 51.4675 51.104C51.4675 52.112 51.8995 52.616 52.7635 52.616C54.0115 52.616 55.7635 51.56 58.0195 49.448L58.6675 50.096C57.5155 51.872 55.9555 53.48 53.9875 54.92C52.0195 56.36 49.7875 57.08 47.2915 57.08C45.7075 57.08 44.4835 56.72 43.6195 56C42.7555 55.232 42.3235 54.176 42.3235 52.832C42.3235 51.824 42.4435 50.792 42.6835 49.736C42.9235 48.632 43.2115 47.504 43.5475 46.352L46.7875 33.68C47.1235 32.384 47.4115 31.208 47.6515 30.152C47.9395 29.048 48.0835 28.112 48.0835 27.344C48.0835 25.664 47.2915 24.824 45.7075 24.824C43.3555 24.824 40.2595 26.744 36.4195 30.584L34.2595 40.592C33.6355 43.52 33.0835 46.184 32.6035 48.584C32.1715 50.936 31.7395 53.408 31.3075 56L22.4515 56.432Z" fill="url(#paint1_radial_7_8)"/>
<path d="M62.6219 56.504L61.9019 56L67.3739 29.648C67.6139 28.4 67.5419 27.488 67.1579 26.912C66.7739 26.288 66.1259 25.784 65.2139 25.4L64.1339 24.896L64.2779 24.176L76.8059 20.216L77.5259 20.864L75.5819 32.744C76.5899 30.44 77.7659 28.352 79.1099 26.48C80.4539 24.608 81.8699 23.12 83.3579 22.016C84.8459 20.864 86.3339 20.288 87.8219 20.288C89.3099 20.288 90.5099 20.696 91.4219 21.512C92.3339 22.28 92.7899 23.312 92.7899 24.608C92.7899 25.952 92.3819 27.056 91.5659 27.92C90.7979 28.784 89.7419 29.216 88.3979 29.216C87.3419 29.216 86.3339 28.952 85.3739 28.424C84.4139 27.848 83.4779 27.032 82.5659 25.976C80.8859 27.224 79.4459 28.856 78.2459 30.872C77.0459 32.84 75.9419 35 74.9339 37.352L74.2139 40.664C73.6859 43.208 73.1819 45.752 72.7019 48.296C72.2219 50.84 71.7419 53.408 71.2619 56L62.6219 56.504Z" fill="url(#paint2_radial_7_8)"/>
<path d="M98.8941 57.08C97.4061 57.08 96.1821 56.696 95.2221 55.928C94.2621 55.16 93.7821 54.032 93.7821 52.544C93.7821 51.68 93.8781 50.648 94.0701 49.448C94.2621 48.248 94.4781 47.048 94.7181 45.848L98.1021 29.648C98.5341 27.68 97.8381 26.288 96.0141 25.472L94.8621 24.896L94.9341 24.104L108.47 20.216L109.19 20.864L103.574 46.928C103.382 47.792 103.238 48.536 103.142 49.16C103.046 49.736 102.998 50.312 102.998 50.888C102.998 51.944 103.478 52.472 104.438 52.472C105.158 52.472 105.878 52.256 106.598 51.824C107.318 51.344 108.23 50.576 109.334 49.52L109.982 50.168C108.782 51.944 107.246 53.552 105.374 54.992C103.55 56.384 101.39 57.08 98.8941 57.08Z" fill="url(#paint3_radial_7_8)"/>
<path d="M107.257 73.28C105.241 73.28 103.417 72.824 101.785 71.912C100.153 71 99.3374 69.704 99.3374 68.024C99.3374 66.776 99.7454 65.816 100.561 65.144C101.377 64.472 102.337 64.136 103.441 64.136C104.545 64.136 105.577 64.424 106.537 65C107.449 65.576 108.265 66.584 108.985 68.024L109.705 69.824C109.993 70.352 110.329 70.64 110.713 70.688C111.097 70.784 111.457 70.544 111.793 69.968C112.033 69.536 112.249 69.032 112.441 68.456C112.633 67.928 112.873 67.256 113.161 66.44C113.833 64.808 114.409 62.816 114.889 60.464C115.417 58.16 115.897 55.592 116.329 52.76C117.097 48.056 117.841 43.232 118.561 38.288C119.281 33.344 120.025 28.136 120.793 22.664H114.961L115.105 22.016L117.913 21.728C119.065 21.584 119.929 21.2 120.505 20.576C121.081 19.952 121.537 19.04 121.873 17.84C123.169 13.664 125.257 10.448 128.137 8.19198C131.017 5.93598 134.569 4.80798 138.793 4.80798C141.193 4.80798 143.137 5.33598 144.625 6.39198C146.113 7.39998 146.857 8.69598 146.857 10.28C146.857 11.576 146.449 12.608 145.633 13.376C144.817 14.144 143.833 14.528 142.681 14.528C140.425 14.528 138.553 13.016 137.065 9.99198L136.777 8.83998C136.345 7.83198 135.841 7.35198 135.265 7.39998C134.737 7.39998 134.281 7.75998 133.897 8.47998C133.081 9.63198 132.337 11.24 131.665 13.304C130.993 15.368 130.393 18.056 129.865 21.368H138.649L138.289 22.88L129.649 22.808C128.881 27.896 128.113 33.008 127.345 38.144C126.625 43.232 125.833 48.128 124.969 52.832C124.297 56.384 123.409 59.456 122.305 62.048C121.249 64.688 119.809 66.92 117.985 68.744C116.497 70.232 114.817 71.36 112.945 72.128C111.121 72.896 109.225 73.28 107.257 73.28Z" fill="url(#paint4_radial_7_8)"/>
<path d="M144.772 57.08C143.284 57.08 142.036 56.696 141.028 55.928C140.068 55.112 139.588 53.936 139.588 52.4C139.588 51.44 139.684 50.408 139.876 49.304C140.068 48.152 140.284 46.928 140.524 45.632L145.492 22.88H139.516L139.732 22.016L142.324 21.728C143.668 21.584 144.844 21.248 145.852 20.72C146.86 20.192 147.82 19.448 148.732 18.488L155.644 11.504H156.724L154.708 21.368H162.556L162.196 22.88H154.348L149.38 46.856C149.188 47.768 149.044 48.56 148.948 49.232C148.852 49.856 148.804 50.384 148.804 50.816C148.804 51.296 148.948 51.68 149.236 51.968C149.524 52.256 149.836 52.4 150.172 52.4C150.844 52.4 151.564 52.136 152.332 51.608C153.1 51.032 154.06 50.192 155.212 49.088L156.076 49.808C154.876 51.584 153.316 53.24 151.396 54.776C149.476 56.312 147.268 57.08 144.772 57.08Z" fill="url(#paint5_radial_7_8)"/>
<path d="M167.941 57.08C166.453 57.08 165.229 56.696 164.269 55.928C163.309 55.16 162.829 54.032 162.829 52.544C162.829 51.68 162.925 50.648 163.117 49.448C163.309 48.248 163.525 47.048 163.765 45.848L167.149 29.648C167.581 27.68 166.885 26.288 165.061 25.472L163.909 24.896L163.981 24.104L177.517 20.216L178.237 20.864L172.621 46.928C172.429 47.792 172.285 48.536 172.189 49.16C172.093 49.736 172.045 50.312 172.045 50.888C172.045 51.944 172.525 52.472 173.485 52.472C174.205 52.472 174.925 52.256 175.645 51.824C176.365 51.344 177.277 50.576 178.381 49.52L179.029 50.168C177.829 51.944 176.293 53.552 174.421 54.992C172.597 56.384 170.437 57.08 167.941 57.08Z" fill="url(#paint6_radial_7_8)"/>
<path d="M182.784 56.504L182.136 56L187.68 29.504C188.112 27.632 187.44 26.288 185.664 25.472L184.44 24.896L184.512 24.176L197.904 20.216L198.552 20.792L196.896 29.504C199.392 26.672 201.936 24.44 204.528 22.808C207.12 21.128 209.568 20.288 211.872 20.288C213.408 20.288 214.68 20.768 215.688 21.728C216.696 22.64 217.2 24.08 217.2 26.048C217.2 27.056 217.104 28.112 216.912 29.216C216.72 30.272 216.48 31.376 216.192 32.528L212.376 47.864C212.184 48.632 212.04 49.28 211.944 49.808C211.848 50.288 211.8 50.72 211.8 51.104C211.8 52.112 212.208 52.616 213.024 52.616C214.368 52.616 216.072 51.536 218.136 49.376L218.856 50.096C217.656 51.872 216.072 53.48 214.104 54.92C212.136 56.36 209.952 57.08 207.552 57.08C205.968 57.08 204.744 56.72 203.88 56C203.016 55.232 202.584 54.176 202.584 52.832C202.584 51.824 202.704 50.792 202.944 49.736C203.184 48.632 203.448 47.504 203.736 46.352L206.544 35.12C206.928 33.584 207.24 32.216 207.48 31.016C207.72 29.816 207.84 28.712 207.84 27.704C207.84 26.84 207.648 26.24 207.264 25.904C206.88 25.52 206.352 25.328 205.68 25.328C204.528 25.328 203.16 25.832 201.576 26.84C200.04 27.848 198.336 29.432 196.464 31.592L194.448 40.664C193.92 43.208 193.416 45.752 192.936 48.296C192.456 50.84 191.976 53.408 191.496 56L182.784 56.504Z" fill="url(#paint7_radial_7_8)"/>
<path d="M105.888 1L108.133 7.90983H115.399L109.521 12.1803L111.766 19.0902L105.888 14.8197L100.01 19.0902L102.255 12.1803L96.3774 7.90983H103.643L105.888 1Z" fill="url(#paint8_radial_7_8)"/>
<path d="M174.888 1L177.133 7.90983H184.399L178.521 12.1803L180.766 19.0902L174.888 14.8197L169.01 19.0902L171.255 12.1803L165.377 7.90983H172.643L174.888 1Z" fill="url(#paint9_radial_7_8)"/>
</g>
<defs>
<filter id="filter0_if_7_8" x="0.5" y="0.5" width="218.856" height="73.28" filterUnits="userSpaceOnUse" color-interpolation-filters="sRGB">
<feFlood flood-opacity="0" result="BackgroundImageFix"/>
<feBlend mode="normal" in="SourceGraphic" in2="BackgroundImageFix" result="shape"/>
<feColorMatrix in="SourceAlpha" type="matrix" values="0 0 0 0 0 0 0 0 0 0 0 0 0 0 0 0 0 0 127 0" result="hardAlpha"/>
<feOffset/>
<feGaussianBlur stdDeviation="2.5"/>
<feComposite in2="hardAlpha" operator="arithmetic" k2="-1" k3="1"/>
<feColorMatrix type="matrix" values="0 0 0 0 0.0901961 0 0 0 0 0.145098 0 0 0 0 0.329412 0 0 0 1 0"/>
<feBlend mode="normal" in2="shape" result="effect1_innerShadow_7_8"/>
<feGaussianBlur stdDeviation="0.25" result="effect2_foregroundBlur_7_8"/>
</filter>
<radialGradient id="paint0_radial_7_8" cx="0" cy="0" r="1" gradientUnits="userSpaceOnUse" gradientTransform="translate(109.928 39.044) scale(108.928 34.236)">
<stop stop-color="#172554"/>
<stop offset="1" stop-color="#172554" stop-opacity="0.25"/>
</radialGradient>
<radialGradient id="paint1_radial_7_8" cx="0" cy="0" r="1" gradientUnits="userSpaceOnUse" gradientTransform="translate(109.928 39.044) scale(108.928 34.236)">
<stop stop-color="#172554"/>
<stop offset="1" stop-color="#172554" stop-opacity="0.25"/>
</radialGradient>
<radialGradient id="paint2_radial_7_8" cx="0" cy="0" r="1" gradientUnits="userSpaceOnUse" gradientTransform="translate(109.928 39.044) scale(108.928 34.236)">
<stop stop-color="#172554"/>
<stop offset="1" stop-color="#172554" stop-opacity="0.25"/>
</radialGradient>
<radialGradient id="paint3_radial_7_8" cx="0" cy="0" r="1" gradientUnits="userSpaceOnUse" gradientTransform="translate(109.928 39.044) scale(108.928 34.236)">
<stop stop-color="#172554"/>
<stop offset="1" stop-color="#172554" stop-opacity="0.25"/>
</radialGradient>
<radialGradient id="paint4_radial_7_8" cx="0" cy="0" r="1" gradientUnits="userSpaceOnUse" gradientTransform="translate(109.928 39.044) scale(108.928 34.236)">
<stop stop-color="#172554"/>
<stop offset="1" stop-color="#172554" stop-opacity="0.25"/>
</radialGradient>
<radialGradient id="paint5_radial_7_8" cx="0" cy="0" r="1" gradientUnits="userSpaceOnUse" gradientTransform="translate(109.928 39.044) scale(108.928 34.236)">
<stop stop-color="#172554"/>
<stop offset="1" stop-color="#172554" stop-opacity="0.25"/>
</radialGradient>
<radialGradient id="paint6_radial_7_8" cx="0" cy="0" r="1" gradientUnits="userSpaceOnUse" gradientTransform="translate(109.928 39.044) scale(108.928 34.236)">
<stop stop-color="#172554"/>
<stop offset="1" stop-color="#172554" stop-opacity="0.25"/>
</radialGradient>
<radialGradient id="paint7_radial_7_8" cx="0" cy="0" r="1" gradientUnits="userSpaceOnUse" gradientTransform="translate(109.928 39.044) scale(108.928 34.236)">
<stop stop-color="#172554"/>
<stop offset="1" stop-color="#172554" stop-opacity="0.25"/>
</radialGradient>
<radialGradient id="paint8_radial_7_8" cx="0" cy="0" r="1" gradientUnits="userSpaceOnUse" gradientTransform="translate(105.888 11) scale(10)">
<stop stop-color="#172554"/>
<stop offset="1" stop-color="#172554" stop-opacity="0.25"/>
</radialGradient>
<radialGradient id="paint9_radial_7_8" cx="0" cy="0" r="1" gradientUnits="userSpaceOnUse" gradientTransform="translate(174.888 11) scale(10)">
<stop stop-color="#172554"/>
<stop offset="1" stop-color="#172554" stop-opacity="0.25"/>
</radialGradient>
</defs>
</svg>
