<svg width="24" height="47" viewBox="0 0 24 47" fill="none" xmlns="http://www.w3.org/2000/svg">
<path d="M5.368 46.08C3.88 46.08 2.632 45.696 1.624 44.928C0.664 44.112 0.184 42.936 0.184 41.4C0.184 40.44 0.28 39.408 0.472 38.304C0.664 37.152 0.88 35.928 1.12 34.632L6.088 11.88H0.112L0.328 11.016L2.92 10.728C4.264 10.584 5.44 10.248 6.448 9.72C7.456 9.192 8.416 8.448 9.328 7.488L16.24 0.503998H17.32L15.304 10.368H23.152L22.792 11.88H14.944L9.976 35.856C9.784 36.768 9.64 37.56 9.544 38.232C9.448 38.856 9.4 39.384 9.4 39.816C9.4 40.296 9.544 40.68 9.832 40.968C10.12 41.256 10.432 41.4 10.768 41.4C11.44 41.4 12.16 41.136 12.928 40.608C13.696 40.032 14.656 39.192 15.808 38.088L16.672 38.808C15.472 40.584 13.912 42.24 11.992 43.776C10.072 45.312 7.864 46.08 5.368 46.08Z" fill="#172554"/>
</svg>
