<svg width="218" height="73" viewBox="0 0 218 73" fill="none" xmlns="http://www.w3.org/2000/svg">
<g filter="url(#filter0_i_7_8)">
<path d="M5.256 56.08C3.768 56.08 2.52 55.696 1.512 54.928C0.552 54.112 0.0720001 52.936 0.0720001 51.4C0.0720001 50.44 0.168 49.408 0.36 48.304C0.552 47.152 0.768 45.928 1.008 44.632L5.976 21.88H0L0.216 21.016L2.808 20.728C4.152 20.584 5.328 20.248 6.336 19.72C7.344 19.192 8.304 18.448 9.216 17.488L16.128 10.504H17.208L15.192 20.368H23.04L22.68 21.88H14.832L9.864 45.856C9.672 46.768 9.528 47.56 9.432 48.232C9.336 48.856 9.288 49.384 9.288 49.816C9.288 50.296 9.432 50.68 9.72 50.968C10.008 51.256 10.32 51.4 10.656 51.4C11.328 51.4 12.048 51.136 12.816 50.608C13.584 50.032 14.544 49.192 15.696 48.088L16.56 48.808C15.36 50.584 13.8 52.24 11.88 53.776C9.96 55.312 7.752 56.08 5.256 56.08Z" fill="url(#paint0_radial_7_8)"/>
<path d="M21.4515 55.432L21.0195 55L27.5715 23.608C27.9555 21.784 28.2915 20.152 28.5795 18.712C28.8675 17.224 29.1795 15.568 29.5155 13.744C29.8995 11.68 29.1075 10.312 27.1395 9.63998L25.9875 9.27998L26.1315 8.55998L39.8835 4.52798L40.3875 5.03198L35.4915 28C37.8915 25.504 40.4355 23.44 43.1235 21.808C45.8595 20.128 48.3795 19.288 50.6835 19.288C52.2195 19.288 53.4675 19.768 54.4275 20.728C55.4355 21.64 55.9395 23.08 55.9395 25.048C55.9395 26.056 55.8435 27.112 55.6515 28.216C55.4595 29.272 55.2195 30.376 54.9315 31.528L51.3315 46.216C51.1395 47.128 50.9475 47.92 50.7555 48.592C50.5635 49.216 50.4675 49.72 50.4675 50.104C50.4675 51.112 50.8995 51.616 51.7635 51.616C53.0115 51.616 54.7635 50.56 57.0195 48.448L57.6675 49.096C56.5155 50.872 54.9555 52.48 52.9875 53.92C51.0195 55.36 48.7875 56.08 46.2915 56.08C44.7075 56.08 43.4835 55.72 42.6195 55C41.7555 54.232 41.3235 53.176 41.3235 51.832C41.3235 50.824 41.4435 49.792 41.6835 48.736C41.9235 47.632 42.2115 46.504 42.5475 45.352L45.7875 32.68C46.1235 31.384 46.4115 30.208 46.6515 29.152C46.9395 28.048 47.0835 27.112 47.0835 26.344C47.0835 24.664 46.2915 23.824 44.7075 23.824C42.3555 23.824 39.2595 25.744 35.4195 29.584L33.2595 39.592C32.6355 42.52 32.0835 45.184 31.6035 47.584C31.1715 49.936 30.7395 52.408 30.3075 55L21.4515 55.432Z" fill="url(#paint1_radial_7_8)"/>
<path d="M61.6219 55.504L60.9019 55L66.3739 28.648C66.6139 27.4 66.5419 26.488 66.1579 25.912C65.7739 25.288 65.1259 24.784 64.2139 24.4L63.1339 23.896L63.2779 23.176L75.8059 19.216L76.5259 19.864L74.5819 31.744C75.5899 29.44 76.7659 27.352 78.1099 25.48C79.4539 23.608 80.8699 22.12 82.3579 21.016C83.8459 19.864 85.3339 19.288 86.8219 19.288C88.3099 19.288 89.5099 19.696 90.4219 20.512C91.3339 21.28 91.7899 22.312 91.7899 23.608C91.7899 24.952 91.3819 26.056 90.5659 26.92C89.7979 27.784 88.7419 28.216 87.3979 28.216C86.3419 28.216 85.3339 27.952 84.3739 27.424C83.4139 26.848 82.4779 26.032 81.5659 24.976C79.8859 26.224 78.4459 27.856 77.2459 29.872C76.0459 31.84 74.9419 34 73.9339 36.352L73.2139 39.664C72.6859 42.208 72.1819 44.752 71.7019 47.296C71.2219 49.84 70.7419 52.408 70.2619 55L61.6219 55.504Z" fill="url(#paint2_radial_7_8)"/>
<path d="M97.8941 56.08C96.4061 56.08 95.1821 55.696 94.2221 54.928C93.2621 54.16 92.7821 53.032 92.7821 51.544C92.7821 50.68 92.8781 49.648 93.0701 48.448C93.2621 47.248 93.4781 46.048 93.7181 44.848L97.1021 28.648C97.5341 26.68 96.8381 25.288 95.0141 24.472L93.8621 23.896L93.9341 23.104L107.47 19.216L108.19 19.864L102.574 45.928C102.382 46.792 102.238 47.536 102.142 48.16C102.046 48.736 101.998 49.312 101.998 49.888C101.998 50.944 102.478 51.472 103.438 51.472C104.158 51.472 104.878 51.256 105.598 50.824C106.318 50.344 107.23 49.576 108.334 48.52L108.982 49.168C107.782 50.944 106.246 52.552 104.374 53.992C102.55 55.384 100.39 56.08 97.8941 56.08Z" fill="url(#paint3_radial_7_8)"/>
<path d="M106.257 72.28C104.241 72.28 102.417 71.824 100.785 70.912C99.1534 70 98.3374 68.704 98.3374 67.024C98.3374 65.776 98.7454 64.816 99.5614 64.144C100.377 63.472 101.337 63.136 102.441 63.136C103.545 63.136 104.577 63.424 105.537 64C106.449 64.576 107.265 65.584 107.985 67.024L108.705 68.824C108.993 69.352 109.329 69.64 109.713 69.688C110.097 69.784 110.457 69.544 110.793 68.968C111.033 68.536 111.249 68.032 111.441 67.456C111.633 66.928 111.873 66.256 112.161 65.44C112.833 63.808 113.409 61.816 113.889 59.464C114.417 57.16 114.897 54.592 115.329 51.76C116.097 47.056 116.841 42.232 117.561 37.288C118.281 32.344 119.025 27.136 119.793 21.664H113.961L114.105 21.016L116.913 20.728C118.065 20.584 118.929 20.2 119.505 19.576C120.081 18.952 120.537 18.04 120.873 16.84C122.169 12.664 124.257 9.44798 127.137 7.19198C130.017 4.93598 133.569 3.80798 137.793 3.80798C140.193 3.80798 142.137 4.33598 143.625 5.39198C145.113 6.39998 145.857 7.69598 145.857 9.27998C145.857 10.576 145.449 11.608 144.633 12.376C143.817 13.144 142.833 13.528 141.681 13.528C139.425 13.528 137.553 12.016 136.065 8.99198L135.777 7.83998C135.345 6.83198 134.841 6.35198 134.265 6.39998C133.737 6.39998 133.281 6.75998 132.897 7.47998C132.081 8.63198 131.337 10.24 130.665 12.304C129.993 14.368 129.393 17.056 128.865 20.368H137.649L137.289 21.88L128.649 21.808C127.881 26.896 127.113 32.008 126.345 37.144C125.625 42.232 124.833 47.128 123.969 51.832C123.297 55.384 122.409 58.456 121.305 61.048C120.249 63.688 118.809 65.92 116.985 67.744C115.497 69.232 113.817 70.36 111.945 71.128C110.121 71.896 108.225 72.28 106.257 72.28Z" fill="url(#paint4_radial_7_8)"/>
<path d="M143.772 56.08C142.284 56.08 141.036 55.696 140.028 54.928C139.068 54.112 138.588 52.936 138.588 51.4C138.588 50.44 138.684 49.408 138.876 48.304C139.068 47.152 139.284 45.928 139.524 44.632L144.492 21.88H138.516L138.732 21.016L141.324 20.728C142.668 20.584 143.844 20.248 144.852 19.72C145.86 19.192 146.82 18.448 147.732 17.488L154.644 10.504H155.724L153.708 20.368H161.556L161.196 21.88H153.348L148.38 45.856C148.188 46.768 148.044 47.56 147.948 48.232C147.852 48.856 147.804 49.384 147.804 49.816C147.804 50.296 147.948 50.68 148.236 50.968C148.524 51.256 148.836 51.4 149.172 51.4C149.844 51.4 150.564 51.136 151.332 50.608C152.1 50.032 153.06 49.192 154.212 48.088L155.076 48.808C153.876 50.584 152.316 52.24 150.396 53.776C148.476 55.312 146.268 56.08 143.772 56.08Z" fill="url(#paint5_radial_7_8)"/>
<path d="M166.941 56.08C165.453 56.08 164.229 55.696 163.269 54.928C162.309 54.16 161.829 53.032 161.829 51.544C161.829 50.68 161.925 49.648 162.117 48.448C162.309 47.248 162.525 46.048 162.765 44.848L166.149 28.648C166.581 26.68 165.885 25.288 164.061 24.472L162.909 23.896L162.981 23.104L176.517 19.216L177.237 19.864L171.621 45.928C171.429 46.792 171.285 47.536 171.189 48.16C171.093 48.736 171.045 49.312 171.045 49.888C171.045 50.944 171.525 51.472 172.485 51.472C173.205 51.472 173.925 51.256 174.645 50.824C175.365 50.344 176.277 49.576 177.381 48.52L178.029 49.168C176.829 50.944 175.293 52.552 173.421 53.992C171.597 55.384 169.437 56.08 166.941 56.08Z" fill="url(#paint6_radial_7_8)"/>
<path d="M181.784 55.504L181.136 55L186.68 28.504C187.112 26.632 186.44 25.288 184.664 24.472L183.44 23.896L183.512 23.176L196.904 19.216L197.552 19.792L195.896 28.504C198.392 25.672 200.936 23.44 203.528 21.808C206.12 20.128 208.568 19.288 210.872 19.288C212.408 19.288 213.68 19.768 214.688 20.728C215.696 21.64 216.2 23.08 216.2 25.048C216.2 26.056 216.104 27.112 215.912 28.216C215.72 29.272 215.48 30.376 215.192 31.528L211.376 46.864C211.184 47.632 211.04 48.28 210.944 48.808C210.848 49.288 210.8 49.72 210.8 50.104C210.8 51.112 211.208 51.616 212.024 51.616C213.368 51.616 215.072 50.536 217.136 48.376L217.856 49.096C216.656 50.872 215.072 52.48 213.104 53.92C211.136 55.36 208.952 56.08 206.552 56.08C204.968 56.08 203.744 55.72 202.88 55C202.016 54.232 201.584 53.176 201.584 51.832C201.584 50.824 201.704 49.792 201.944 48.736C202.184 47.632 202.448 46.504 202.736 45.352L205.544 34.12C205.928 32.584 206.24 31.216 206.48 30.016C206.72 28.816 206.84 27.712 206.84 26.704C206.84 25.84 206.648 25.24 206.264 24.904C205.88 24.52 205.352 24.328 204.68 24.328C203.528 24.328 202.16 24.832 200.576 25.84C199.04 26.848 197.336 28.432 195.464 30.592L193.448 39.664C192.92 42.208 192.416 44.752 191.936 47.296C191.456 49.84 190.976 52.408 190.496 55L181.784 55.504Z" fill="url(#paint7_radial_7_8)"/>
<path d="M104.888 0L107.133 6.90983H114.399L108.521 11.1803L110.766 18.0902L104.888 13.8197L99.0101 18.0902L101.255 11.1803L95.3774 6.90983H102.643L104.888 0Z" fill="url(#paint8_radial_7_8)"/>
<path d="M173.888 0L176.133 6.90983H183.399L177.521 11.1803L179.766 18.0902L173.888 13.8197L168.01 18.0902L170.255 11.1803L164.377 6.90983H171.643L173.888 0Z" fill="url(#paint9_radial_7_8)"/>
</g>
<defs>
<filter id="filter0_i_7_8" x="0" y="0" width="217.856" height="72.28" filterUnits="userSpaceOnUse" color-interpolation-filters="sRGB">
<feFlood flood-opacity="0" result="BackgroundImageFix"/>
<feBlend mode="normal" in="SourceGraphic" in2="BackgroundImageFix" result="shape"/>
<feColorMatrix in="SourceAlpha" type="matrix" values="0 0 0 0 0 0 0 0 0 0 0 0 0 0 0 0 0 0 127 0" result="hardAlpha"/>
<feOffset/>
<feGaussianBlur stdDeviation="2.5"/>
<feComposite in2="hardAlpha" operator="arithmetic" k2="-1" k3="1"/>
<feColorMatrix type="matrix" values="0 0 0 0 0.0901961 0 0 0 0 0.145098 0 0 0 0 0.329412 0 0 0 1 0"/>
<feBlend mode="normal" in2="shape" result="effect1_innerShadow_7_8"/>
</filter>
<radialGradient id="paint0_radial_7_8" cx="0" cy="0" r="1" gradientUnits="userSpaceOnUse" gradientTransform="translate(108.928 38.044) scale(108.928 34.236)">
<stop stop-color="#172554"/>
<stop offset="1" stop-color="#172554" stop-opacity="0.25"/>
</radialGradient>
<radialGradient id="paint1_radial_7_8" cx="0" cy="0" r="1" gradientUnits="userSpaceOnUse" gradientTransform="translate(108.928 38.044) scale(108.928 34.236)">
<stop stop-color="#172554"/>
<stop offset="1" stop-color="#172554" stop-opacity="0.25"/>
</radialGradient>
<radialGradient id="paint2_radial_7_8" cx="0" cy="0" r="1" gradientUnits="userSpaceOnUse" gradientTransform="translate(108.928 38.044) scale(108.928 34.236)">
<stop stop-color="#172554"/>
<stop offset="1" stop-color="#172554" stop-opacity="0.25"/>
</radialGradient>
<radialGradient id="paint3_radial_7_8" cx="0" cy="0" r="1" gradientUnits="userSpaceOnUse" gradientTransform="translate(108.928 38.044) scale(108.928 34.236)">
<stop stop-color="#172554"/>
<stop offset="1" stop-color="#172554" stop-opacity="0.25"/>
</radialGradient>
<radialGradient id="paint4_radial_7_8" cx="0" cy="0" r="1" gradientUnits="userSpaceOnUse" gradientTransform="translate(108.928 38.044) scale(108.928 34.236)">
<stop stop-color="#172554"/>
<stop offset="1" stop-color="#172554" stop-opacity="0.25"/>
</radialGradient>
<radialGradient id="paint5_radial_7_8" cx="0" cy="0" r="1" gradientUnits="userSpaceOnUse" gradientTransform="translate(108.928 38.044) scale(108.928 34.236)">
<stop stop-color="#172554"/>
<stop offset="1" stop-color="#172554" stop-opacity="0.25"/>
</radialGradient>
<radialGradient id="paint6_radial_7_8" cx="0" cy="0" r="1" gradientUnits="userSpaceOnUse" gradientTransform="translate(108.928 38.044) scale(108.928 34.236)">
<stop stop-color="#172554"/>
<stop offset="1" stop-color="#172554" stop-opacity="0.25"/>
</radialGradient>
<radialGradient id="paint7_radial_7_8" cx="0" cy="0" r="1" gradientUnits="userSpaceOnUse" gradientTransform="translate(108.928 38.044) scale(108.928 34.236)">
<stop stop-color="#172554"/>
<stop offset="1" stop-color="#172554" stop-opacity="0.25"/>
</radialGradient>
<radialGradient id="paint8_radial_7_8" cx="0" cy="0" r="1" gradientUnits="userSpaceOnUse" gradientTransform="translate(104.888 10) scale(10)">
<stop stop-color="#172554"/>
<stop offset="1" stop-color="#172554" stop-opacity="0.25"/>
</radialGradient>
<radialGradient id="paint9_radial_7_8" cx="0" cy="0" r="1" gradientUnits="userSpaceOnUse" gradientTransform="translate(173.888 10) scale(10)">
<stop stop-color="#172554"/>
<stop offset="1" stop-color="#172554" stop-opacity="0.25"/>
</radialGradient>
</defs>
</svg>
